<svg width="60" height="60" viewBox="0 0 60 60" fill="none" xmlns="http://www.w3.org/2000/svg">
<g clip-path="url(#clip0)">
<path d="M41.2384 40.7485C40.753 40.7485 40.3594 41.1419 40.3594 41.6276V43.6974C40.3594 44.1829 40.7529 44.5765 41.2384 44.5765C41.7239 44.5765 42.1174 44.1831 42.1174 43.6974V41.6276C42.1174 41.1419 41.724 40.7485 41.2384 40.7485Z" fill="#272727"/>
<path d="M44.6046 40.7485C44.1192 40.7485 43.7256 41.1419 43.7256 41.6276V43.6974C43.7256 44.1829 44.1191 44.5765 44.6046 44.5765C45.0901 44.5765 45.4836 44.1831 45.4836 43.6974V41.6276C45.4836 41.1419 45.0902 40.7485 44.6046 40.7485Z" fill="#272727"/>
<path d="M41.2384 46.5399C40.753 46.5399 40.3594 46.9333 40.3594 47.4189V49.4889C40.3594 49.9744 40.7529 50.368 41.2384 50.368C41.7239 50.368 42.1174 49.9746 42.1174 49.4889V47.4189C42.1174 46.9333 41.724 46.5399 41.2384 46.5399Z" fill="#272727"/>
<path d="M44.6046 46.5399C44.1192 46.5399 43.7256 46.9333 43.7256 47.4189V49.4889C43.7256 49.9744 44.1191 50.368 44.6046 50.368C45.0901 50.368 45.4836 49.9746 45.4836 49.4889V47.4189C45.4836 46.9333 45.0902 46.5399 44.6046 46.5399Z" fill="#272727"/>
<path d="M15.3966 40.7485C14.9111 40.7485 14.5176 41.1419 14.5176 41.6276V43.6974C14.5176 44.1829 14.911 44.5765 15.3966 44.5765C15.8821 44.5765 16.2756 44.1831 16.2756 43.6974V41.6276C16.2756 41.1419 15.8822 40.7485 15.3966 40.7485Z" fill="#272727"/>
<path d="M18.7618 40.7485C18.2763 40.7485 17.8828 41.1419 17.8828 41.6276V43.6974C17.8828 44.1828 18.2763 44.5765 18.7618 44.5765C19.2473 44.5765 19.6409 44.1831 19.6409 43.6974V41.6276C19.6407 41.1419 19.2473 40.7485 18.7618 40.7485Z" fill="#272727"/>
<path d="M15.3966 46.5399C14.9111 46.5399 14.5176 46.9333 14.5176 47.4189V49.4889C14.5176 49.9744 14.911 50.368 15.3966 50.368C15.8821 50.368 16.2756 49.9746 16.2756 49.4889V47.4189C16.2756 46.9333 15.8822 46.5399 15.3966 46.5399Z" fill="#272727"/>
<path d="M18.7618 46.5399C18.2763 46.5399 17.8828 46.9333 17.8828 47.4189V49.4889C17.8828 49.9744 18.2762 50.368 18.7618 50.368C19.2473 50.368 19.6409 49.9746 19.6409 49.4889V47.4189C19.6407 46.9333 19.2473 46.5399 18.7618 46.5399Z" fill="#272727"/>
<path d="M27.9318 40.7485C27.4462 40.7485 27.0527 41.1419 27.0527 41.6276V43.6974C27.0527 44.1829 27.4461 44.5765 27.9318 44.5765C28.4173 44.5765 28.8108 44.1831 28.8108 43.6974V41.6276C28.8108 41.1419 28.4173 40.7485 27.9318 40.7485Z" fill="#272727"/>
<path d="M31.298 40.7485C30.8125 40.7485 30.4189 41.1419 30.4189 41.6276V43.6974C30.4189 44.1828 30.8125 44.5765 31.298 44.5765C31.7835 44.5765 32.177 44.1831 32.177 43.6974V41.6276C32.177 41.1419 31.7836 40.7485 31.298 40.7485Z" fill="#272727"/>
<path d="M53.0809 55.0775H48.8112V50.5049C48.8112 50.0195 48.4178 49.6259 47.9321 49.6259C47.4466 49.6259 47.0531 50.0194 47.0531 50.5049V55.0777H40.5392C40.6059 54.8547 40.6429 54.6189 40.6429 54.3743C40.6429 53.2049 39.8223 52.2254 38.7273 51.9762V38.2655H47.0532V46.403C47.0532 46.8885 47.4466 47.282 47.9322 47.282C48.4178 47.282 48.8113 46.8886 48.8113 46.403V37.3866V35.1009C48.8231 35.1009 48.975 35.1009 48.9631 35.1009C50.1396 35.1009 51.0808 34.1515 51.0808 32.9834C51.0808 30.2674 51.0841 29.8362 51.0717 29.4015C51.069 28.9535 50.851 28.5299 50.4874 28.2673L35.671 17.5733C34.3458 16.6168 33.1086 16.9274 32.4624 16.8659V11.3992H40.6219C41.3472 11.3992 41.9375 10.809 41.9375 10.0835V3.70911C41.9375 3.03774 41.3913 2.49153 40.7198 2.49153H32.4624V2.46012C32.4624 0.974771 31.0953 -0.31687 29.4229 0.0690287C28.2649 0.363638 27.54 1.36817 27.54 2.46012V4.89446C27.54 5.37997 27.9334 5.77348 28.419 5.77348C28.9045 5.77348 29.298 5.38008 29.298 4.89446V2.46012C29.298 2.09614 29.5826 1.77399 29.9847 1.75852C30.397 1.7502 30.7046 2.08055 30.7046 2.46012V3.37055C30.7046 4.72782 30.7046 15.3254 30.7046 16.8657H29.298V8.99625C29.298 8.51075 28.9046 8.11723 28.419 8.11723C27.9335 8.11723 27.54 8.51063 27.54 8.99625V16.8656C26.6501 16.9386 25.4794 16.6035 24.2172 17.5147L9.6915 27.999C9.21373 28.3436 8.92838 28.9013 8.92838 29.4905C8.92463 33.1733 8.87998 33.1813 9.01463 33.6125C9.51853 35.2334 11.178 35.0968 11.1909 35.1009C11.1909 39.0463 11.1909 50.3538 11.1909 55.0775H6.92143C5.53334 55.0775 4.45439 56.2402 4.46189 57.4788C4.3951 58.7705 5.48635 60 6.92143 60H53.081C54.4381 60 55.5423 58.8959 55.5423 57.5387C55.5422 56.1995 54.4528 55.0775 53.0809 55.0775ZM40.1795 4.24946V9.64126H32.4624V4.24946H40.1795ZM38.8851 54.3742C38.8851 54.762 38.5697 55.0774 38.1819 55.0774H34.3146C33.9269 55.0774 33.6113 54.762 33.6113 54.3743C33.6113 53.9866 33.9269 53.6711 34.3146 53.6711C35.0533 53.6711 37.4399 53.6711 38.1819 53.6711C38.5695 53.6711 38.8851 53.9865 38.8851 54.3742ZM31.9556 55.0775H30.5553V48.1806H33.7691V51.9739C32.3858 52.2882 31.5497 53.719 31.9556 55.0775ZM25.5835 51.9741V48.1807H28.7973V55.0777H27.3969C27.8075 53.7035 26.9478 52.2839 25.5835 51.9741ZM18.8133 55.0775H12.9491V38.2655H20.6253V51.9762C19.2588 52.287 18.4002 53.6957 18.8133 55.0775ZM12.9491 36.5075V35.1009H20.6253V36.5075H12.9491ZM21.1707 53.6711C21.1828 53.6711 25.049 53.6685 25.1099 53.6747C25.44 53.7083 25.704 53.972 25.7376 54.3025C25.7802 54.7167 25.4536 55.0775 25.0379 55.0775H21.1706C20.7828 55.0775 20.4672 54.7621 20.4672 54.3743C20.4675 53.9865 20.7829 53.6711 21.1707 53.6711ZM22.3833 51.9131C22.3833 49.404 22.3833 37.1658 22.3833 35.1011H23.8257C23.8257 37.74 23.8257 44.5662 23.8257 47.3017V51.9131H22.3833ZM25.5835 46.4228V38.2655H33.7691V46.4228C31.5642 46.4228 26.868 46.4228 25.5835 46.4228ZM25.5835 36.5075V35.1009H33.7691V36.5075H25.5835ZM35.527 51.9131V47.3016C35.527 44.5559 35.527 37.7296 35.527 35.1009H36.9695C36.9695 37.1629 36.9695 49.4095 36.9695 51.913H35.527V51.9131ZM47.0533 36.5075H38.7274V35.1009H47.0533V36.5075ZM11.0371 33.343C10.8539 33.343 10.7324 33.2162 10.693 33.0896C10.6662 33.0045 10.686 32.9945 10.6842 31.9364H19.4532C19.9387 31.9364 20.3322 31.543 20.3322 31.0574C20.3322 30.572 19.9388 30.1784 19.4532 30.1784H10.6863C10.6972 29.5386 10.6574 29.47 10.7201 29.4244C25.9538 18.565 25.217 18.6236 26.2256 18.6236C28.9071 18.6236 30.9019 18.6236 33.482 18.6236C34.6531 18.6236 33.9035 18.6253 49.3162 29.5897C49.3163 29.6016 49.3234 30.2174 49.323 30.1781H23.5553C23.0697 30.1781 22.6762 30.5716 22.6762 31.0572C22.6762 31.5427 23.0696 31.9362 23.5553 31.9362H49.323C49.3179 33.0192 49.3351 33.0002 49.307 33.0902C49.263 33.2313 49.1318 33.3428 48.963 33.3428C40.4416 33.3428 31.9953 33.3428 21.5042 33.3428C19.641 33.343 12.2865 33.343 11.0371 33.343ZM53.0809 58.2421H6.92143C6.47201 58.2421 6.13322 57.8218 6.23717 57.3817C6.24502 57.37 6.3615 56.8355 6.92143 56.8355C19.2544 56.8355 45.4659 56.8355 53.081 56.8355C53.4324 56.8355 53.7579 57.0884 53.7841 57.5571C53.7743 57.9366 53.4627 58.2421 53.0809 58.2421Z" fill="#272727"/>
</g>
<defs>
<clipPath id="clip0">
<rect width="60" height="60" fill="white"/>
</clipPath>
</defs>
</svg>
