<svg width="60" height="60" viewBox="0 0 60 60" fill="none" xmlns="http://www.w3.org/2000/svg">
<g clip-path="url(#clip0)">
<path d="M13.5487 27.0967V25.0237C15.2143 24.5914 16.4519 23.0892 16.4519 21.2903C16.4519 19.1554 14.7158 17.4193 12.5809 17.4193C11.5135 17.4193 10.6454 16.5513 10.6454 15.4838C10.6454 14.4164 11.5135 13.5483 12.5809 13.5483C13.6484 13.5483 14.5164 14.4164 14.5164 15.4838H16.4519C16.4519 13.6849 15.2143 12.1827 13.5487 11.7504V9.67737H11.6132V11.7504C9.94752 12.1827 8.70996 13.6849 8.70996 15.4838C8.70996 17.6187 10.446 19.3548 12.5809 19.3548C13.6484 19.3548 14.5164 20.2228 14.5164 21.2903C14.5164 22.3577 13.6484 23.2258 12.5809 23.2258C11.5135 23.2258 10.6454 22.3577 10.6454 21.2903H8.70996C8.70996 23.0892 9.94752 24.5914 11.6132 25.0237V27.0967H13.5487Z" fill="#272727"/>
<path d="M19.3545 18.3871C19.3545 17.8526 19.7878 17.4193 20.3222 17.4193C20.8567 17.4193 21.29 17.8526 21.29 18.3871C21.29 18.9215 20.8567 19.3548 20.3222 19.3548C19.7878 19.3548 19.3545 18.9215 19.3545 18.3871Z" fill="#272727"/>
<path d="M3.87109 18.3871C3.87109 17.8526 4.30437 17.4193 4.83884 17.4193C5.3733 17.4193 5.80658 17.8526 5.80658 18.3871C5.80658 18.9215 5.3733 19.3548 4.83884 19.3548C4.30437 19.3548 3.87109 18.9215 3.87109 18.3871Z" fill="#272727"/>
<path d="M15.4834 49.3548C15.4834 48.8204 15.9167 48.3871 16.4511 48.3871C16.9856 48.3871 17.4189 48.8204 17.4189 49.3548C17.4189 49.8893 16.9856 50.3226 16.4511 50.3226C15.9167 50.3226 15.4834 49.8893 15.4834 49.3548Z" fill="#272727"/>
<path d="M19.3545 49.3548C19.3545 48.8204 19.7878 48.3871 20.3222 48.3871C20.8567 48.3871 21.29 48.8204 21.29 49.3548C21.29 49.8893 20.8567 50.3226 20.3222 50.3226C19.7878 50.3226 19.3545 49.8893 19.3545 49.3548Z" fill="#272727"/>
<path d="M23.2256 49.3548C23.2256 48.8204 23.6589 48.3871 24.1933 48.3871C24.7278 48.3871 25.1611 48.8204 25.1611 49.3548C25.1611 49.8893 24.7278 50.3226 24.1933 50.3226C23.6589 50.3226 23.2256 49.8893 23.2256 49.3548Z" fill="#272727"/>
<path d="M27.0967 49.3548C27.0967 48.8204 27.53 48.3871 28.0644 48.3871C28.5989 48.3871 29.0322 48.8204 29.0322 49.3548C29.0322 49.8893 28.5989 50.3226 28.0644 50.3226C27.53 50.3226 27.0967 49.8893 27.0967 49.3548Z" fill="#272727"/>
<path d="M15.4834 45.4839C15.4834 44.9494 15.9167 44.5161 16.4511 44.5161H28.064C28.5985 44.5161 29.0318 44.9494 29.0318 45.4839C29.0318 46.0183 28.5985 46.4516 28.064 46.4516H16.4511C15.9167 46.4516 15.4834 46.0183 15.4834 45.4839Z" fill="#272727"/>
<path d="M42.5807 40.6451H32.9033C31.8358 40.6451 30.9678 41.5132 30.9678 42.5806V48.3871C30.9678 49.4545 31.8358 50.3226 32.9033 50.3226H42.5807C43.6481 50.3226 44.5162 49.4545 44.5162 48.3871V42.5806C44.5162 41.5132 43.6481 40.6451 42.5807 40.6451ZM42.5816 44.5161H40.6452V42.5806H42.5807L42.5816 44.5161ZM32.9033 46.4516H34.8387V48.3871H32.9033V46.4516ZM36.7742 48.3871V44.5161H32.9033V42.5806H38.7097V46.4516H42.5816L42.5826 48.3871H36.7742Z" fill="#272727"/>
<path d="M59.1494 23.4686L45.4636 9.78274C44.3673 8.68741 42.4488 8.69025 41.3625 9.77801L21.8555 29.0322H19.2542C22.7953 26.8033 25.1613 22.8704 25.1613 18.387C25.1613 11.4503 19.5174 5.8064 12.5806 5.8064C5.6439 5.8064 0 11.4503 0 18.387C0 25.0615 5.22855 30.5235 11.8033 30.928C11.6866 31.2436 11.6129 31.5801 11.6129 31.9354V51.2903C11.6129 52.8907 12.9157 54.1935 14.5161 54.1935H45.4839C47.0843 54.1935 48.3871 52.8907 48.3871 51.2903V38.3373L59.1494 27.5749C59.6981 27.0273 60 26.2972 60 25.5213C60 24.7459 59.6981 24.0163 59.1494 23.4686ZM46.1497 13.2057L47.5162 14.5723L33.0573 29.0322H30.395L46.1497 13.2057ZM22.6488 30.9677L42.7257 11.1512C43.1042 10.7736 43.7166 10.7717 44.0951 11.1512L44.7803 11.8373L25.7382 30.9677H45.4839C46.0178 30.9677 46.4516 31.4015 46.4516 31.9354V32.9032H13.5484V31.9354C13.5484 31.4015 13.9822 30.9677 14.5161 30.9677H22.6488ZM42.0415 28.2591L46.1478 24.1529L48.8847 26.8907L51.6211 24.1529L52.9905 25.5222L47.9991 30.5136C47.4997 29.6342 46.566 29.0322 45.4839 29.0322H42.815L42.0415 28.2591ZM47.5162 22.7844L48.8847 21.416L50.2531 22.7844L48.8847 24.1538L47.5162 22.7844ZM13.5484 34.8387H46.4516V36.7741H13.5484V34.8387ZM1.93548 18.387C1.93548 12.5177 6.71135 7.74188 12.5806 7.74188C18.4499 7.74188 23.2258 12.5177 23.2258 18.387C23.2258 24.2563 18.4499 29.0322 12.5806 29.0322C6.71135 29.0322 1.93548 24.2563 1.93548 18.387ZM45.4839 52.258H14.5161C13.9822 52.258 13.5484 51.8242 13.5484 51.2903V38.7096H46.4516V51.2903C46.4516 51.8242 46.0178 52.258 45.4839 52.258ZM57.781 26.2065L48.3871 35.6004V32.8625L54.3599 26.8907C55.115 26.1356 55.115 24.9075 54.3599 24.1529L50.2541 20.0475C49.4999 19.2938 48.2709 19.2938 47.5172 20.0475L40.674 26.8907C40.0956 27.4681 39.9638 28.3239 40.2728 29.0322H35.7946L48.8856 15.9417L57.781 24.8371C58.1585 25.2156 58.1585 25.828 57.781 26.2065Z" fill="#272727"/>
</g>
<defs>
<clipPath id="clip0">
<rect width="60" height="60" fill="white"/>
</clipPath>
</defs>
</svg>
