<svg width="60" height="60" viewBox="0 0 60 60" fill="none" xmlns="http://www.w3.org/2000/svg">
<g clip-path="url(#clip0)">
<path d="M38.4375 4.21875H25.3125C24.7941 4.21875 24.375 4.63875 24.375 5.15625C24.375 5.67375 24.7941 6.09375 25.3125 6.09375H38.4375C38.9559 6.09375 39.375 5.67375 39.375 5.15625C39.375 4.63875 38.9559 4.21875 38.4375 4.21875Z" fill="#272727"/>
<path d="M33.75 4.21875C33.2316 4.21875 32.8125 4.63875 32.8125 5.15625V9.84375C32.8125 10.3612 33.2316 10.7812 33.75 10.7812C34.2684 10.7812 34.6875 10.3612 34.6875 9.84375V5.15625C34.6875 4.63875 34.2684 4.21875 33.75 4.21875Z" fill="#272727"/>
<path d="M33.75 8.90625H30C29.4816 8.90625 29.0625 9.32625 29.0625 9.84375C29.0625 10.3613 29.4816 10.7812 30 10.7812H33.75C34.2684 10.7812 34.6875 10.3613 34.6875 9.84375C34.6875 9.32625 34.2684 8.90625 33.75 8.90625Z" fill="#272727"/>
<path d="M30 4.21875C29.4816 4.21875 29.0625 4.63875 29.0625 5.15625V9.84375C29.0625 10.3612 29.4816 10.7812 30 10.7812C30.5184 10.7812 30.9375 10.3612 30.9375 9.84375V5.15625C30.9375 4.63875 30.5184 4.21875 30 4.21875Z" fill="#272727"/>
<path d="M25.3125 22.9688H14.0625C13.5441 22.9688 13.125 23.3888 13.125 23.9062C13.125 24.4238 13.5441 24.8438 14.0625 24.8438H25.3125C25.8309 24.8438 26.25 24.4238 26.25 23.9062C26.25 23.3888 25.8309 22.9688 25.3125 22.9688Z" fill="#272727"/>
<path d="M38.4375 21.0938C37.9191 21.0938 37.5 21.5138 37.5 22.0312V37.9688C37.5 38.4872 37.9191 38.9062 38.4375 38.9062C38.9559 38.9062 39.375 38.4872 39.375 37.9688V22.0312C39.375 21.5138 38.9559 21.0938 38.4375 21.0938Z" fill="#272727"/>
<path d="M59.0623 44.5312H56.2695C55.7511 44.5312 55.332 44.9503 55.332 45.4688C55.332 45.9872 55.7511 46.4062 56.2695 46.4062H59.0623C59.5808 46.4062 59.9998 45.9872 59.9998 45.4688C59.9998 44.9503 59.5808 44.5312 59.0623 44.5312Z" fill="#272727"/>
<path d="M59.0625 44.5312C58.5441 44.5312 58.125 44.9503 58.125 45.4688V49.2188C58.125 49.7372 58.5441 50.1562 59.0625 50.1562C59.5809 50.1562 60 49.7372 60 49.2188V45.4688C60 44.9503 59.5809 44.5312 59.0625 44.5312Z" fill="#272727"/>
<path d="M9.37501 48.2812C9.37407 48.2812 9.37313 48.2812 9.37219 48.2812L2.80969 48.3009C2.29126 48.3028 1.87313 48.7228 1.87501 49.2413C1.87688 49.7588 2.29594 50.1759 2.81251 50.1759C2.81344 50.1759 2.81438 50.1759 2.81532 50.1759L9.37782 50.1563C9.89626 50.1544 10.3144 49.7344 10.3125 49.2159C10.3106 48.6984 9.89157 48.2812 9.37501 48.2812Z" fill="#272727"/>
<path d="M58.125 39.8438H57.1875C56.6691 39.8438 56.25 40.2628 56.25 40.7812C56.25 41.2997 56.6691 41.7188 57.1875 41.7188H58.125C58.6434 41.7188 59.0625 41.2997 59.0625 40.7812C59.0625 40.2628 58.6434 39.8438 58.125 39.8438Z" fill="#272727"/>
<path d="M58.125 33.2812C57.6066 33.2812 57.1875 33.7003 57.1875 34.2188V45.4688C57.1875 45.9872 57.6066 46.4062 58.125 46.4062C58.6434 46.4062 59.0625 45.9872 59.0625 45.4688V34.2188C59.0625 33.7003 58.6434 33.2812 58.125 33.2812Z" fill="#272727"/>
<path d="M52.5 21.0938H38.4375C37.9191 21.0938 37.5 21.5138 37.5 22.0312C37.5 22.5488 37.9191 22.9688 38.4375 22.9688H52.5C53.0184 22.9688 53.4375 22.5488 53.4375 22.0312C53.4375 21.5138 53.0184 21.0938 52.5 21.0938Z" fill="#272727"/>
<path d="M58.9764 33.8259L53.3514 21.6384C53.1348 21.1688 52.5798 20.9634 52.1073 21.18C51.6367 21.3966 51.4323 21.9544 51.6489 22.4241L57.2739 34.6116C57.4323 34.9547 57.7717 35.1562 58.1261 35.1562C58.2573 35.1562 58.3905 35.1291 58.518 35.07C58.9886 34.8534 59.193 34.2956 58.9764 33.8259Z" fill="#272727"/>
<path d="M2.8125 44.5312C2.29406 44.5312 1.875 44.9503 1.875 45.4688V49.2778C1.875 49.7963 2.29406 50.2153 2.8125 50.2153C3.33094 50.2153 3.75 49.7953 3.75 49.2778V45.4688C3.75 44.9503 3.33094 44.5312 2.8125 44.5312Z" fill="#272727"/>
<path d="M0.9375 32.3438C0.419063 32.3438 0 32.7628 0 33.2812V45.4688C0 45.9872 0.419063 46.4062 0.9375 46.4062C1.45594 46.4062 1.875 45.9872 1.875 45.4688V33.2812C1.875 32.7628 1.45594 32.3438 0.9375 32.3438Z" fill="#272727"/>
<path d="M38.4375 32.3438H0.9375C0.419063 32.3438 0 32.7628 0 33.2812C0 33.7997 0.419063 34.2188 0.9375 34.2188H38.4375C38.9559 34.2188 39.375 33.7997 39.375 33.2812C39.375 32.7628 38.9559 32.3438 38.4375 32.3438Z" fill="#272727"/>
<path d="M5.625 44.5312H0.9375C0.419063 44.5312 0 44.9503 0 45.4688C0 45.9872 0.419063 46.4062 0.9375 46.4062H5.625C6.14344 46.4062 6.5625 45.9872 6.5625 45.4688C6.5625 44.9503 6.14344 44.5312 5.625 44.5312Z" fill="#272727"/>
<path d="M15 42.6562C11.3822 42.6562 8.4375 45.6009 8.4375 49.2188C8.4375 52.8366 11.3822 55.7812 15 55.7812C18.6178 55.7812 21.5625 52.8366 21.5625 49.2188C21.5625 45.6009 18.6178 42.6562 15 42.6562ZM15 53.9062C12.4153 53.9062 10.3125 51.8034 10.3125 49.2188C10.3125 46.6341 12.4153 44.5312 15 44.5312C17.5847 44.5312 19.6875 46.6341 19.6875 49.2188C19.6875 51.8034 17.5847 53.9062 15 53.9062Z" fill="#272727"/>
<path d="M15 46.4062C13.4494 46.4062 12.1875 47.6681 12.1875 49.2188C12.1875 50.7694 13.4494 52.0312 15 52.0312C16.5506 52.0312 17.8125 50.7694 17.8125 49.2188C17.8125 47.6681 16.5506 46.4062 15 46.4062ZM15 50.1562C14.4825 50.1562 14.0625 49.7362 14.0625 49.2188C14.0625 48.7013 14.4825 48.2812 15 48.2812C15.5175 48.2812 15.9375 48.7013 15.9375 49.2188C15.9375 49.7362 15.5175 50.1562 15 50.1562Z" fill="#272727"/>
<path d="M45.9375 46.4062C44.3869 46.4062 43.125 47.6681 43.125 49.2188C43.125 50.7694 44.3869 52.0312 45.9375 52.0312C47.4881 52.0312 48.75 50.7694 48.75 49.2188C48.75 47.6681 47.4881 46.4062 45.9375 46.4062ZM45.9375 50.1562C45.42 50.1562 45 49.7362 45 49.2188C45 48.7013 45.42 48.2812 45.9375 48.2812C46.455 48.2812 46.875 48.7013 46.875 49.2188C46.875 49.7362 46.455 50.1562 45.9375 50.1562Z" fill="#272727"/>
<path d="M45.9375 42.6562C42.3197 42.6562 39.375 45.6009 39.375 49.2188C39.375 52.8366 42.3197 55.7812 45.9375 55.7812C49.5553 55.7812 52.5 52.8366 52.5 49.2188C52.5 45.6009 49.5553 42.6562 45.9375 42.6562ZM45.9375 53.9062C43.3528 53.9062 41.25 51.8034 41.25 49.2188C41.25 46.6341 43.3528 44.5312 45.9375 44.5312C48.5222 44.5312 50.625 46.6341 50.625 49.2188C50.625 51.8034 48.5222 53.9062 45.9375 53.9062Z" fill="#272727"/>
<path d="M40.3359 48.2812H20.625C20.1066 48.2812 19.6875 48.7003 19.6875 49.2188C19.6875 49.7372 20.1066 50.1562 20.625 50.1562H40.3359C40.8544 50.1562 41.2734 49.7372 41.2734 49.2188C41.2734 48.7003 40.8544 48.2812 40.3359 48.2812Z" fill="#272727"/>
<path d="M59.0625 48.2812H51.5625C51.0441 48.2812 50.625 48.7003 50.625 49.2188C50.625 49.7372 51.0441 50.1562 51.5625 50.1562H59.0625C59.5809 50.1562 60 49.7372 60 49.2188C60 48.7003 59.5809 48.2812 59.0625 48.2812Z" fill="#272727"/>
<path d="M58.125 33.2812H46.875C46.3566 33.2812 45.9375 33.7003 45.9375 34.2188C45.9375 34.7372 46.3566 35.1562 46.875 35.1562H58.125C58.6434 35.1562 59.0625 34.7372 59.0625 34.2188C59.0625 33.7003 58.6434 33.2812 58.125 33.2812Z" fill="#272727"/>
<path d="M46.875 33.2812C45.3244 33.2812 44.0625 32.0194 44.0625 30.4688C44.0625 29.9513 43.6434 29.5312 43.125 29.5312C42.6066 29.5312 42.1875 29.9513 42.1875 30.4688C42.1875 33.0534 44.2903 35.1562 46.875 35.1562C47.3934 35.1562 47.8125 34.7372 47.8125 34.2188C47.8125 33.7003 47.3934 33.2812 46.875 33.2812Z" fill="#272727"/>
<path d="M43.125 21.0938C42.6066 21.0938 42.1875 21.5138 42.1875 22.0312V30.4688C42.1875 30.9872 42.6066 31.4062 43.125 31.4062C43.6434 31.4062 44.0625 30.9872 44.0625 30.4688V22.0312C44.0625 21.5138 43.6434 21.0938 43.125 21.0938Z" fill="#272727"/>
<path d="M38.4375 4.21875C37.9191 4.21875 37.5 4.63875 37.5 5.15625V33.2812C37.5 33.7997 37.9191 34.2188 38.4375 34.2188C38.9559 34.2188 39.375 33.7997 39.375 33.2812V5.15625C39.375 4.63875 38.9559 4.21875 38.4375 4.21875Z" fill="#272727"/>
<path d="M25.3125 4.21875C24.7941 4.21875 24.375 4.63875 24.375 5.15625V33.2812C24.375 33.7997 24.7941 34.2188 25.3125 34.2188C25.8309 34.2188 26.25 33.7997 26.25 33.2812V5.15625C26.25 4.63875 25.8309 4.21875 25.3125 4.21875Z" fill="#272727"/>
<path d="M14.0625 11.7188C13.5441 11.7188 13.125 12.1388 13.125 12.6562V33.2812C13.125 33.7997 13.5441 34.2188 14.0625 34.2188C14.5809 34.2188 15 33.7997 15 33.2812V12.6562C15 12.1388 14.5809 11.7188 14.0625 11.7188Z" fill="#272727"/>
<path d="M19.6875 22.9688C19.1691 22.9688 18.75 23.3888 18.75 23.9062V26.7188C18.75 27.2362 19.1691 27.6562 19.6875 27.6562C20.2059 27.6562 20.625 27.2362 20.625 26.7188V23.9062C20.625 23.3888 20.2059 22.9688 19.6875 22.9688Z" fill="#272727"/>
<path d="M25.3125 11.7188H14.0625C13.5441 11.7188 13.125 12.1388 13.125 12.6562C13.125 13.1738 13.5441 13.5938 14.0625 13.5938H25.3125C25.8309 13.5938 26.25 13.1738 26.25 12.6562C26.25 12.1388 25.8309 11.7188 25.3125 11.7188Z" fill="#272727"/>
<path d="M19.6875 11.7188C19.1691 11.7188 18.75 12.1388 18.75 12.6562V14.5312C18.75 15.0487 19.1691 15.4688 19.6875 15.4688C20.2059 15.4688 20.625 15.0487 20.625 14.5312V12.6562C20.625 12.1388 20.2059 11.7188 19.6875 11.7188Z" fill="#272727"/>
<path d="M2.8125 18.2812C2.29406 18.2812 1.875 18.7013 1.875 19.2188V33.2812C1.875 33.7997 2.29406 34.2188 2.8125 34.2188C3.33094 34.2188 3.75 33.7997 3.75 33.2812V19.2188C3.75 18.7013 3.33094 18.2812 2.8125 18.2812Z" fill="#272727"/>
<path d="M14.0625 18.2812H2.8125C2.29406 18.2812 1.875 18.7013 1.875 19.2188C1.875 19.7363 2.29406 20.1562 2.8125 20.1562H14.0625C14.5809 20.1562 15 19.7363 15 19.2188C15 18.7013 14.5809 18.2812 14.0625 18.2812Z" fill="#272727"/>
<path d="M6.5625 18.2812C6.04406 18.2812 5.625 18.7013 5.625 19.2188V22.0312C5.625 22.5487 6.04406 22.9688 6.5625 22.9688C7.08094 22.9688 7.5 22.5487 7.5 22.0312V19.2188C7.5 18.7013 7.08094 18.2812 6.5625 18.2812Z" fill="#272727"/>
<path d="M10.3125 21.0938H6.5625C6.04406 21.0938 5.625 21.5138 5.625 22.0312C5.625 22.5488 6.04406 22.9688 6.5625 22.9688H10.3125C10.8309 22.9688 11.25 22.5488 11.25 22.0312C11.25 21.5138 10.8309 21.0938 10.3125 21.0938Z" fill="#272727"/>
<path d="M10.3125 18.2812C9.79406 18.2812 9.375 18.7013 9.375 19.2188V22.0312C9.375 22.5487 9.79406 22.9688 10.3125 22.9688C10.8309 22.9688 11.25 22.5487 11.25 22.0312V19.2188C11.25 18.7013 10.8309 18.2812 10.3125 18.2812Z" fill="#272727"/>
</g>
<defs>
<clipPath id="clip0">
<rect width="60" height="60" fill="white"/>
</clipPath>
</defs>
</svg>
