<svg width="60" height="60" viewBox="0 0 60 60" fill="none" xmlns="http://www.w3.org/2000/svg">
<g clip-path="url(#clip0)">
<path d="M51.8656 50.038C51.6006 50.038 51.3466 49.933 51.1586 49.745L46.9066 45.493C46.5396 45.126 46.5146 44.54 46.8476 44.142C50.1696 40.188 51.9996 35.166 51.9996 30C51.9996 24.834 50.1696 19.812 46.8476 15.858C46.5136 15.461 46.5396 14.874 46.9066 14.507L51.1586 10.255C51.3546 10.059 51.6186 9.94996 51.8996 9.96296C52.1766 9.97296 52.4376 10.097 52.6196 10.306C57.3786 15.767 59.9996 22.762 59.9996 30C59.9996 37.238 57.3786 44.233 52.6196 49.694C52.4376 49.903 52.1766 50.027 51.8996 50.037C51.8886 50.038 51.8766 50.038 51.8656 50.038ZM48.9566 44.714L51.8006 47.559C55.8056 42.591 57.9996 36.397 57.9996 30C57.9996 23.603 55.8056 17.409 51.8006 12.441L48.9566 15.286C52.2146 19.482 53.9996 24.671 53.9996 30C53.9996 35.329 52.2146 40.518 48.9566 44.714Z" fill="#272727"/>
<path d="M8.134 50.0379C8.123 50.0379 8.111 50.0379 8.1 50.0379C7.823 50.0279 7.562 49.9039 7.38 49.6949C2.621 44.2329 0 37.2379 0 29.9999C0 22.7609 2.621 15.7669 7.38 10.3049C7.562 10.0969 7.823 9.97192 8.1 9.96292C8.381 9.95192 8.645 10.0599 8.841 10.2549L13.093 14.5069C13.46 14.8739 13.485 15.4599 13.152 15.8579C9.83 19.8119 8 24.8339 8 29.9999C8 35.1659 9.83 40.1879 13.152 44.1419C13.486 44.5389 13.46 45.1259 13.093 45.4929L8.841 49.7449C8.654 49.9329 8.399 50.0379 8.134 50.0379ZM8.199 12.4409C4.194 17.4089 2 23.6019 2 29.9999C2 36.3969 4.194 42.5909 8.199 47.5589L11.043 44.7139C7.785 40.5179 6 35.3289 6 29.9999C6 24.6709 7.785 19.4819 11.043 15.2859L8.199 12.4409Z" fill="#272727"/>
<path d="M44.7846 13.387C44.5566 13.387 44.3286 13.309 44.1416 13.153C40.1876 9.83 35.1656 8 29.9996 8C24.8336 8 19.8116 9.83 15.8576 13.152C15.4606 13.486 14.8736 13.46 14.5076 13.093L10.2556 8.841C10.0586 8.646 9.95256 8.377 9.96256 8.1C9.97256 7.823 10.0966 7.562 10.3056 7.38C15.7666 2.621 22.7606 0 29.9996 0C37.2386 0 44.2326 2.621 49.6946 7.38C49.9036 7.562 50.0276 7.823 50.0376 8.1C50.0476 8.377 49.9416 8.645 49.7456 8.841L45.4936 13.093C45.2976 13.288 45.0416 13.387 44.7846 13.387ZM29.9996 6C35.3286 6 40.5176 7.785 44.7136 11.044L47.5576 8.199C42.5906 4.194 36.3976 2 29.9996 2C23.6016 2 17.4086 4.194 12.4406 8.199L15.2846 11.044C19.4816 7.785 24.6706 6 29.9996 6Z" fill="#272727"/>
<path d="M29.9996 60C22.7606 60 15.7666 57.379 10.3046 52.62C10.0956 52.438 9.97159 52.177 9.96159 51.9C9.95159 51.623 10.0576 51.355 10.2536 51.159L14.5056 46.907C14.8726 46.541 15.4586 46.515 15.8556 46.848C19.8116 50.17 24.8336 52 29.9996 52C35.1656 52 40.1876 50.17 44.1416 46.848C44.5386 46.515 45.1256 46.54 45.4916 46.907L49.7436 51.159C49.9396 51.355 50.0456 51.623 50.0356 51.9C50.0256 52.177 49.9016 52.438 49.6926 52.62C44.2326 57.379 37.2386 60 29.9996 60ZM12.4406 51.801C17.4086 55.806 23.6016 58 29.9996 58C36.3976 58 42.5906 55.806 47.5586 51.801L44.7146 48.956C40.5176 52.215 35.3286 54 29.9996 54C24.6706 54 19.4816 52.215 15.2856 48.956L12.4406 51.801Z" fill="#272727"/>
<path d="M30 48C26.516 48 23.377 46.363 20.671 43.134C17.683 39.569 16.037 34.84 16.037 29.819L16 20.004C15.999 19.738 16.104 19.483 16.292 19.295C16.479 19.106 16.734 19 17 19C25.548 19 29.01 13.694 29.153 13.468C29.337 13.178 29.656 13.002 29.999 13.002H30.003C30.346 13.003 30.665 13.179 30.848 13.469C31 13.71 34.465 19 43 19C43.266 19 43.521 19.106 43.708 19.294C43.896 19.482 44 19.737 44 20.003L43.963 29.821C43.963 34.839 42.317 39.567 39.329 43.133C36.623 46.363 33.484 48 30 48ZM18.004 20.978L18.037 29.815C18.037 34.371 19.517 38.644 22.203 41.849C24.512 44.604 27.135 46 30 46C32.865 46 35.488 44.604 37.797 41.849C40.484 38.643 41.963 34.371 41.963 29.819L41.996 20.978C35.318 20.674 31.554 17.393 30 15.628C28.446 17.393 24.682 20.674 18.004 20.978Z" fill="#272727"/>
<path d="M29.001 38C28.697 38 28.397 37.862 28.2 37.6L25.2 33.6C24.869 33.158 24.9579 32.531 25.4 32.2C25.842 31.868 26.469 31.958 26.8 32.4L29.8 36.4C30.131 36.842 30.042 37.469 29.6 37.8C29.42 37.935 29.209 38 29.001 38Z" fill="#272727"/>
<path d="M28.9992 38C28.8152 38 28.6302 37.95 28.4632 37.844C27.9972 37.548 27.8602 36.929 28.1562 36.463L35.1562 25.463C35.4522 24.998 36.0702 24.859 36.5372 25.156C37.0032 25.452 37.1402 26.071 36.8442 26.537L29.8442 37.537C29.6532 37.836 29.3302 38 28.9992 38Z" fill="#272727"/>
</g>
<defs>
<clipPath id="clip0">
<rect width="60" height="60" fill="white"/>
</clipPath>
</defs>
</svg>
