<svg width="34" height="24" viewBox="0 0 34 24" fill="none" xmlns="http://www.w3.org/2000/svg">
<path d="M33.7925 11.4992L23.1675 0.874162C22.8908 0.597447 22.4425 0.597447 22.1659 0.874162C21.8892 1.15088 21.8892 1.59912 22.1659 1.87577L31.5818 11.2916H0.708355C0.316824 11.2916 0 11.6085 0 12C0 12.3915 0.316824 12.7084 0.708355 12.7084H31.5818L22.1659 22.1242C21.8892 22.4009 21.8892 22.8491 22.1659 23.1258C22.3042 23.2641 22.4855 23.3333 22.6667 23.3333C22.8479 23.3333 23.0292 23.2641 23.1675 23.1258L33.7925 12.5008C34.0692 12.2241 34.0692 11.7759 33.7925 11.4992Z" fill="white"/>
</svg>
