<svg width="34" height="24" viewBox="0 0 34 24" fill="none" xmlns="http://www.w3.org/2000/svg">
<path d="M0.207517 12.5008L10.8325 23.1258C11.1092 23.4026 11.5575 23.4026 11.8341 23.1258C12.1108 22.8491 12.1108 22.4009 11.8341 22.1242L2.41825 12.7084L33.2916 12.7084C33.6832 12.7084 34 12.3915 34 12C34 11.6085 33.6832 11.2916 33.2916 11.2916L2.41825 11.2916L11.8341 1.87584C12.1108 1.59912 12.1108 1.15088 11.8341 0.874235C11.6958 0.73591 11.5145 0.666716 11.3333 0.666716C11.1521 0.666716 10.9708 0.73591 10.8325 0.874235L0.207448 11.4992C-0.0691976 11.7759 -0.0691976 12.2241 0.207517 12.5008Z" fill="white"/>
</svg>
