<svg width="24" height="22" viewBox="0 0 24 22" fill="none" xmlns="http://www.w3.org/2000/svg">
<path d="M0.794075 10.7666C1.05228 10.7666 1.261 10.5578 1.261 10.2996C1.261 7.46772 3.56528 5.16344 6.39719 5.16344H17.6034V9.34897L24.0003 4.69652L17.6034 0.0440674V4.22959H6.39719C3.05026 4.22959 0.327148 6.9527 0.327148 10.2996C0.327148 10.5578 0.535864 10.7666 0.794075 10.7666ZM18.5373 1.87815L22.4128 4.69652L18.5373 7.51488V1.87815Z" fill="#272727"/>
<path d="M23.2062 11.2335C22.948 11.2335 22.7393 11.4422 22.7393 11.7004C22.7393 14.5323 20.435 16.8366 17.6031 16.8366H6.39689V12.651L0 17.3035L6.39689 21.9559V17.7704H17.6031C20.95 17.7704 23.6732 15.0473 23.6732 11.7004C23.6732 11.4422 23.4644 11.2335 23.2062 11.2335ZM5.46303 20.1219L1.58755 17.3035L5.46303 14.4851V20.1219Z" fill="#272727"/>
</svg>
