<svg width="25" height="23" viewBox="0 0 25 23" fill="none" xmlns="http://www.w3.org/2000/svg">
<path d="M21.1389 14.8554H7.98943C7.87401 14.8541 7.7623 14.8143 7.67198 14.7425C7.58166 14.6706 7.51789 14.5707 7.49073 14.4585L5.1397 4.06856L4.52904 1.40239H0.508881C0.373918 1.40239 0.244482 1.34879 0.149048 1.25337C0.0536141 1.15794 0 1.02853 0 0.893582C0 0.758637 0.0536141 0.629219 0.149048 0.533798C0.244482 0.438378 0.373918 0.384771 0.508881 0.384771H4.93615C5.05205 0.38425 5.16466 0.423303 5.25534 0.495471C5.34602 0.567638 5.40935 0.668596 5.43485 0.781643L6.03533 3.43764H24.1311C24.2103 3.43683 24.2885 3.45486 24.3593 3.49025C24.4301 3.52564 24.4914 3.57737 24.5383 3.64116C24.5841 3.70316 24.6152 3.77477 24.6294 3.85058C24.6435 3.92638 24.6402 4.0044 24.6197 4.07874L21.6275 14.489C21.5966 14.5947 21.5323 14.6875 21.4443 14.7536C21.3562 14.8196 21.249 14.8554 21.1389 14.8554ZM8.39654 13.8377H20.7624L23.4594 4.45526H6.26942L8.39654 13.8377Z" fill="white"/>
<path d="M9.39392 22.3849C8.99133 22.3849 8.59779 22.2655 8.26305 22.042C7.92831 21.8184 7.66741 21.5006 7.51334 21.1288C7.35928 20.757 7.31897 20.3479 7.39751 19.9532C7.47605 19.5585 7.66992 19.1959 7.95459 18.9114C8.23926 18.6268 8.60196 18.433 8.99681 18.3545C9.39166 18.276 9.80094 18.3163 10.1729 18.4703C10.5448 18.6243 10.8627 18.8851 11.0864 19.2197C11.3101 19.5543 11.4294 19.9477 11.4294 20.3502C11.4294 20.8898 11.215 21.4073 10.8333 21.7889C10.4515 22.1705 9.93378 22.3849 9.39392 22.3849ZM9.39392 19.3328C9.19263 19.3328 8.99585 19.3925 8.82848 19.5042C8.66111 19.616 8.53067 19.7749 8.45363 19.9608C8.3766 20.1467 8.35645 20.3513 8.39572 20.5486C8.43499 20.746 8.53192 20.9273 8.67426 21.0695C8.81659 21.2118 8.99794 21.3087 9.19537 21.348C9.39279 21.3872 9.59743 21.3671 9.7834 21.2901C9.96937 21.2131 10.1283 21.0827 10.2402 20.9154C10.352 20.7481 10.4117 20.5514 10.4117 20.3502C10.4144 20.2148 10.3901 20.0804 10.3401 19.9546C10.2902 19.8288 10.2157 19.7142 10.1209 19.6176C10.0261 19.5209 9.91299 19.4442 9.78816 19.3918C9.66334 19.3394 9.52931 19.3124 9.39392 19.3124V19.3328Z" fill="white"/>
<path d="M19.684 22.3849C19.2814 22.3849 18.8878 22.2655 18.5531 22.042C18.2183 21.8184 17.9574 21.5006 17.8034 21.1288C17.6493 20.757 17.609 20.3479 17.6876 19.9532C17.7661 19.5585 17.96 19.1959 18.2446 18.9114C18.5293 18.6268 18.892 18.433 19.2868 18.3545C19.6817 18.276 20.091 18.3163 20.4629 18.4703C20.8349 18.6243 21.1528 18.8851 21.3764 19.2197C21.6001 19.5543 21.7195 19.9477 21.7195 20.3502C21.7195 20.8898 21.505 21.4073 21.1233 21.7889C20.7416 22.1705 20.2238 22.3849 19.684 22.3849ZM19.684 19.3328C19.4827 19.3328 19.2859 19.3925 19.1185 19.5042C18.9512 19.616 18.8207 19.7749 18.7437 19.9608C18.6666 20.1467 18.6465 20.3513 18.6858 20.5486C18.725 20.746 18.822 20.9273 18.9643 21.0695C19.1066 21.2118 19.288 21.3087 19.4854 21.348C19.6828 21.3872 19.8875 21.3671 20.0734 21.2901C20.2594 21.2131 20.4184 21.0827 20.5302 20.9154C20.642 20.7481 20.7017 20.5514 20.7017 20.3502C20.7044 20.2148 20.6801 20.0804 20.6302 19.9546C20.5802 19.8288 20.5057 19.7142 20.4109 19.6176C20.3161 19.5209 20.203 19.4442 20.0782 19.3918C19.9534 19.3394 19.8193 19.3124 19.684 19.3124V19.3328Z" fill="white"/>
<path d="M21.2108 17.9378H7.85779C7.31794 17.9378 6.80019 17.7235 6.41846 17.3419C6.03672 16.9603 5.82227 16.4428 5.82227 15.9031C5.82227 15.3635 6.03672 14.8459 6.41846 14.4644C6.80019 14.0828 7.31794 13.8684 7.85779 13.8684H20.5697C20.7046 13.8684 20.8341 13.922 20.9295 14.0174C21.0249 14.1128 21.0785 14.2422 21.0785 14.3771C21.0785 14.512 21.0249 14.6414 20.9295 14.7368C20.8341 14.8322 20.7046 14.8858 20.5697 14.8858H7.85779C7.58786 14.8858 7.32899 14.993 7.13812 15.1837C6.94726 15.3745 6.84003 15.6333 6.84003 15.9031C6.84003 16.1729 6.94726 16.4317 7.13812 16.6225C7.32899 16.8133 7.58786 16.9205 7.85779 16.9205H21.2108C21.3458 16.9205 21.4752 16.9741 21.5707 17.0695C21.6661 17.1649 21.7197 17.2942 21.7197 17.4292C21.7197 17.5641 21.6661 17.6934 21.5707 17.7888C21.4752 17.8842 21.3458 17.9378 21.2108 17.9378Z" fill="white"/>
</svg>
