<svg width="22" height="22" viewBox="0 0 22 22" fill="none" xmlns="http://www.w3.org/2000/svg">
<path d="M11 0C4.9347 0 0 4.9347 0 11C0 17.0653 4.9347 22 11 22C17.0653 22 22 17.0653 22 11C22 4.9347 17.0653 0 11 0ZM11.4583 21.0601V19.7083C11.4583 19.455 11.2533 19.25 11 19.25C10.7467 19.25 10.5417 19.455 10.5417 19.7083V21.0601C5.34811 20.8249 1.17502 16.6519 0.939855 11.4583H2.29165C2.545 11.4583 2.75 11.2533 2.75 11C2.75 10.7467 2.545 10.5417 2.29165 10.5417H0.939855C1.17502 5.34811 5.34806 1.17502 10.5417 0.939855V2.29165C10.5417 2.545 10.7467 2.75 11 2.75C11.2533 2.75 11.4583 2.545 11.4583 2.29165V0.939855C16.6519 1.17502 20.825 5.34806 21.0601 10.5417H19.7083C19.455 10.5417 19.25 10.7467 19.25 11C19.25 11.2533 19.455 11.4583 19.7083 11.4583H21.0601C20.825 16.6519 16.6519 20.825 11.4583 21.0601Z" fill="#898686"/>
<path d="M11.8711 11.2234C11.8901 11.15 11.9163 11.0792 11.9163 11C11.9163 10.8082 11.8434 10.6399 11.7422 10.4925L14.6233 4.31886C14.7303 4.08971 14.6314 3.81664 14.4018 3.70969C14.1731 3.60446 13.9001 3.70251 13.7926 3.93124L10.9135 10.1008C10.4505 10.1465 10.083 10.5253 10.083 11C10.083 11.5053 10.4943 11.9167 10.9997 11.9167C11.0788 11.9167 11.1497 11.8904 11.223 11.8715L14.8006 15.4491C14.8901 15.5386 15.0074 15.5833 15.1247 15.5833C15.2419 15.5833 15.3592 15.5386 15.4487 15.4491C15.6278 15.27 15.6278 14.98 15.4487 14.801L11.8711 11.2234Z" fill="#898686"/>
</svg>
