<svg width="50" height="50" viewBox="0 0 50 50" fill="none" xmlns="http://www.w3.org/2000/svg">
<path d="M25 0C11.25 0 0 11.25 0 25C0 38.75 11.25 50 25 50C38.75 50 50 38.75 50 25C50 11.25 38.75 0 25 0ZM25 48.3333C12.1667 48.3333 1.6667 37.8333 1.6667 25C1.6667 12.1667 12.1667 1.6667 25 1.6667C37.8333 1.6667 48.3333 12.1667 48.3333 25C48.3333 37.8333 37.8333 48.3333 25 48.3333Z" fill="#272727"/>
<path d="M12.4995 9.16668C12.6662 9.16668 12.8328 9.08338 12.9162 8.91668C15.4995 6.99998 18.5829 5.66668 21.7495 5.16668C22.1662 5.16668 22.4995 4.66668 22.4162 4.24998C22.4162 3.83328 21.9162 3.49998 21.4995 3.58328C18.0828 4.16658 14.8328 5.58328 11.9995 7.66658C11.6662 7.91658 11.5828 8.49988 11.8328 8.83328C11.9995 9.08328 12.2495 9.16668 12.4995 9.16668Z" fill="#272727"/>
<path d="M8.83316 11.9167C8.49986 11.6667 7.91646 11.75 7.66646 12.0834C5.49976 14.8334 4.16646 18.1667 3.58316 21.5834C3.49986 22.0001 3.83316 22.4167 4.24986 22.5001C4.33316 22.5001 4.33316 22.5001 4.41656 22.5001C4.83326 22.5001 5.16656 22.2501 5.24986 21.8334C5.74986 18.6667 7.08316 15.6667 8.99986 13.0834C9.24986 12.75 9.16656 12.1667 8.83316 11.9167Z" fill="#272727"/>
<path d="M5.16656 28.25C5.16656 27.8333 4.66656 27.5 4.24986 27.5833C3.83316 27.5833 3.49986 28.0833 3.58316 28.5C4.16646 31.9167 5.58316 35.1667 7.66646 38C7.83316 38.25 8.08316 38.3333 8.33316 38.3333C8.49986 38.3333 8.66646 38.25 8.74986 38.25C9.08316 38 9.16656 37.4167 8.91656 37.0833C6.99986 34.5 5.66656 31.4167 5.16656 28.25Z" fill="#272727"/>
<path d="M21.7515 44.75C18.5848 44.25 15.5848 42.9167 13.0015 41C12.6682 40.75 12.0848 40.8333 11.8348 41.1667C11.5848 41.5 11.6681 42.0834 12.0015 42.3334C14.7515 44.5001 18.0848 45.8334 21.5015 46.4167C21.5848 46.4167 21.5848 46.4167 21.6682 46.4167C22.0849 46.4167 22.4182 46.0834 22.4182 45.6667C22.5015 45.25 22.1682 44.8333 21.7515 44.75Z" fill="#272727"/>
<path d="M36.9159 41.0833C34.3326 43 31.3326 44.3333 28.1659 44.8333C27.7492 44.8333 27.4159 45.3333 27.4992 45.75C27.5825 46.1667 27.9159 46.4167 28.3325 46.4167C28.4158 46.4167 28.4158 46.4167 28.4158 46.5C31.8325 45.9167 35.0825 44.5 37.9158 42.4167C38.2491 42.1667 38.3325 41.5834 38.0825 41.25C37.8325 40.9167 37.2492 40.8333 36.9159 41.0833Z" fill="#272727"/>
<path d="M45.6675 27.5833C45.2508 27.5 44.8342 27.8333 44.7508 28.25C44.2508 31.4167 42.9175 34.4167 41.0008 37C40.7508 37.3333 40.8341 37.9167 41.1675 38.1667C41.3342 38.25 41.5008 38.3334 41.6675 38.3334C41.9175 38.3334 42.1675 38.1667 42.2508 38.0001C44.4175 35.2501 45.7508 31.9168 46.3341 28.5001C46.4175 28.0833 46.0841 27.6667 45.6675 27.5833Z" fill="#272727"/>
<path d="M44.7508 21.8333C44.8341 22.25 45.1675 22.5 45.5841 22.5C45.5841 22.5 45.6674 22.5 45.7508 22.4167C46.1675 22.4167 46.5008 21.9167 46.4175 21.5C45.8342 18.0833 44.4175 14.8333 42.3342 12C42.0842 11.6667 41.5009 11.5833 41.1675 11.8333C40.8341 12.0833 40.7508 12.6666 41.0008 13C42.9175 15.5833 44.2508 18.6667 44.7508 21.8333Z" fill="#272727"/>
<path d="M28.1679 5.25008C31.3347 5.75008 34.418 7.08338 37.0013 9.00008C37.168 9.08338 37.3346 9.16677 37.5013 9.16677C37.7513 9.16677 38.0013 9.08347 38.0846 8.91677C38.3346 8.58347 38.2513 8.00008 37.9179 7.75008C35.1679 5.66678 31.8346 4.25008 28.4178 3.66678C28.0011 3.58348 27.5845 3.91678 27.5011 4.33348C27.4178 4.75018 27.7512 5.16678 28.1679 5.25008Z" fill="#272727"/>
<path d="M24.9993 8.33327C25.4993 8.33327 25.8326 7.91657 25.8326 7.49997V4.16667C25.8326 3.66667 25.4993 3.33337 24.9993 3.33337C24.4993 3.33337 24.166 3.66667 24.166 4.16667V7.49997C24.166 7.99997 24.4993 8.33327 24.9993 8.33327Z" fill="#272727"/>
<path d="M24.9993 41.6667C24.4993 41.6667 24.166 42.0001 24.166 42.5001V45.8334C24.166 46.3334 24.4993 46.6667 24.9993 46.6667C25.4993 46.6667 25.8326 46.3334 25.8326 45.8334V42.5001C25.8326 42.0001 25.4993 41.6667 24.9993 41.6667Z" fill="#272727"/>
<path d="M45.8326 24.1666H42.4993C41.9993 24.1666 41.666 24.4999 41.666 24.9999C41.666 25.4999 41.9993 25.8332 42.4993 25.8332H45.8326C46.3326 25.8332 46.6659 25.4999 46.6659 24.9999C46.6659 24.4999 46.3326 24.1666 45.8326 24.1666Z" fill="#272727"/>
<path d="M7.49863 25.8332C7.91533 25.8332 8.33193 25.4999 8.33193 24.9999C8.33193 24.4999 7.99863 24.1666 7.49863 24.1666H4.16533C3.66533 24.1666 3.33203 24.4999 3.33203 24.9999C3.33203 25.4999 3.66533 25.8332 4.16533 25.8332H7.49863Z" fill="#272727"/>
<path d="M39.1673 9.66667L36.834 12C36.5007 12.3333 36.5007 12.8333 36.834 13.1667C37.0007 13.3334 37.1673 13.4167 37.4173 13.4167C37.584 13.4167 37.834 13.3334 38.0006 13.1667L40.3339 10.8334C40.6672 10.5001 40.6672 10.0001 40.3339 9.66667C40.0006 9.33328 39.5006 9.33328 39.1673 9.66667Z" fill="#272727"/>
<path d="M13.166 36.8332C12.8327 36.4999 12.3327 36.4999 11.9993 36.8332L9.66599 39.1665C9.33269 39.4998 9.33269 39.9998 9.66599 40.3332C9.83269 40.4999 9.99929 40.5832 10.2493 40.5832C10.4993 40.5832 10.666 40.4999 10.8326 40.3332L13.1659 37.9999C13.4993 37.6666 13.4993 37.1666 13.166 36.8332Z" fill="#272727"/>
<path d="M38.0007 36.8332C37.6674 36.4999 37.1674 36.4999 36.834 36.8332C36.5007 37.1665 36.5007 37.6665 36.834 37.9999L39.1673 40.3332C39.334 40.4999 39.5006 40.5832 39.7506 40.5832C39.9173 40.5832 40.1673 40.4999 40.3339 40.3332C40.6672 39.9999 40.6672 39.4999 40.3339 39.1665L38.0007 36.8332Z" fill="#272727"/>
<path d="M11.9994 13.1667C12.1661 13.3334 12.3327 13.4167 12.5827 13.4167C12.8327 13.4167 13.0827 13.3334 13.166 13.1667C13.4993 12.8334 13.4993 12.3334 13.166 12L10.8327 9.66672C10.4994 9.33342 9.99943 9.33342 9.66603 9.66672C9.33263 10 9.33273 10.5 9.66603 10.8334L11.9994 13.1667Z" fill="#272727"/>
<path d="M34.1679 25.8332C34.6679 25.8332 35.0012 25.4999 35.0012 24.9999C35.0012 24.4999 34.6679 24.1666 34.1679 24.1666H28.2283C27.9251 22.9997 27.0015 22.076 25.8346 21.7729V12.4999C25.8346 11.9999 25.5013 11.6666 25.0013 11.6666C24.5013 11.6666 24.168 11.9999 24.168 12.4999V21.7728C22.7345 22.1452 21.668 23.454 21.668 24.9999C21.668 26.8332 23.168 28.3332 25.0013 28.3332C26.5472 28.3332 27.856 27.2667 28.2284 25.8332H34.1679ZM25.0012 26.6666C24.0845 26.6666 23.3345 25.9166 23.3345 24.9999C23.3345 24.0832 24.0845 23.3332 25.0012 23.3332C25.9179 23.3332 26.6679 24.0832 26.6679 24.9999C26.6679 25.9166 25.9179 26.6666 25.0012 26.6666Z" fill="#272727"/>
</svg>
