<svg width="50" height="50" viewBox="0 0 50 50" fill="none" xmlns="http://www.w3.org/2000/svg">
<path d="M49.9899 19.1148C49.9848 19.0574 49.9733 19.0006 49.9558 18.9456C49.9443 18.8965 49.9284 18.8486 49.9083 18.8023C49.885 18.7571 49.857 18.7143 49.825 18.6747C49.7929 18.6278 49.7557 18.5845 49.7141 18.5455C49.7008 18.5339 49.695 18.518 49.6808 18.5064L41.6663 12.2819V5.83081C41.6663 4.45008 40.5469 3.33069 39.1661 3.33069H30.1348L26.5187 0.523025C25.6254 -0.17369 24.3727 -0.17369 23.4794 0.523025L19.8625 3.33069H10.8312C9.45048 3.33069 8.33109 4.44998 8.33109 5.83081V12.282L0.319059 18.5065C0.304898 18.5182 0.299039 18.534 0.285757 18.5456C0.244251 18.5845 0.207042 18.6279 0.174911 18.6748C0.142878 18.7144 0.114947 18.7571 0.0916062 18.8024C0.0713903 18.8486 0.0555692 18.8966 0.0441429 18.9457C0.0267592 18.9999 0.0153328 19.0558 0.00996144 19.1124C0.00996144 19.1299 0 19.145 0 19.1624V47.4995C0.00117193 48.0296 0.172665 48.5453 0.489185 48.9704C0.494166 48.9779 0.495045 48.9871 0.500807 48.9938C0.506666 49.0004 0.519167 49.0079 0.527468 49.0171C0.995656 49.6331 1.72382 49.9963 2.49759 49.9997H47.4999C48.2767 49.9973 49.0079 49.6324 49.4766 49.013C49.4833 49.0047 49.4933 49.0021 49.4991 48.9938C49.505 48.9855 49.5057 48.978 49.5108 48.9705C49.8273 48.5453 49.9988 48.0296 50 47.4996V19.1648C49.9999 19.1473 49.9908 19.1323 49.9899 19.1148ZM24.4986 1.83803C24.7896 1.60677 25.2018 1.60677 25.4928 1.83803L27.4154 3.33059H22.5818L24.4986 1.83803ZM2.70756 48.333L24.4987 31.4062C24.7899 31.1754 25.2018 31.1754 25.4929 31.4062L47.2898 48.333H2.70756ZM48.3332 47.0337L26.5187 30.0911C25.6252 29.395 24.3729 29.395 23.4794 30.0911L1.66415 47.0337V20.434L15.3207 31.0387C15.6846 31.3209 16.2082 31.2547 16.4904 30.8908C16.7725 30.5269 16.7063 30.0032 16.3424 29.7211L2.46839 18.9481L8.33119 14.392V20.8315C8.33119 21.2918 8.70435 21.6648 9.16453 21.6648C9.62481 21.6648 9.99787 21.2917 9.99787 20.8315V5.83072C9.99787 5.37044 10.3709 4.99737 10.8312 4.99737H39.166C39.6262 4.99737 39.9993 5.37044 39.9993 5.83072V20.8315C39.9993 21.2918 40.3724 21.6648 40.8326 21.6648C41.2929 21.6648 41.666 21.2917 41.666 20.8315V14.392L47.5288 18.9481L33.6306 29.7403C33.3915 29.9215 33.2682 30.2172 33.3078 30.5146C33.3475 30.812 33.5439 31.0651 33.8221 31.1773C34.1004 31.2895 34.4175 31.2436 34.6523 31.057L48.333 20.434V47.0337H48.3332Z" fill="#272727"/>
<path d="M34.999 19.998V16.6646C34.999 11.1414 30.5217 6.66406 24.9985 6.66406C19.4754 6.66406 14.998 11.1414 14.998 16.6646C14.998 22.1877 19.4754 26.6651 24.9985 26.6651C25.4588 26.6651 25.8319 26.292 25.8319 25.8317C25.8319 25.3715 25.4588 24.9984 24.9985 24.9984C20.396 24.9984 16.6648 21.2672 16.6648 16.6647C16.6648 12.0621 20.396 8.33094 24.9985 8.33094C29.6011 8.33094 33.3323 12.0621 33.3323 16.6647V19.9981C33.3323 20.9187 32.586 21.6649 31.6655 21.6649C30.7449 21.6649 29.9987 20.9187 29.9987 19.9981V16.6647C29.9987 16.2044 29.6256 15.8313 29.1654 15.8313C28.7051 15.8313 28.332 16.2044 28.332 16.6647C28.332 18.5057 26.8396 19.9981 24.9985 19.9981C23.1575 19.9981 21.6651 18.5057 21.6651 16.6647C21.6651 14.8237 23.1575 13.3312 24.9985 13.3312C25.4588 13.3312 25.8319 12.9581 25.8319 12.4979C25.8319 12.0376 25.4588 11.6645 24.9985 11.6645C22.7606 11.6595 20.7919 13.1421 20.1786 15.2944C19.5653 17.4466 20.4566 19.7443 22.361 20.9198C24.2654 22.0952 26.7188 21.8622 28.3679 20.3491C28.5493 22.1115 30.0811 23.4219 31.8504 23.3283C33.6197 23.2345 35.0046 21.7698 34.999 19.998Z" fill="#272727"/>
</svg>
