<svg width="50" height="50" viewBox="0 0 50 50" fill="none" xmlns="http://www.w3.org/2000/svg">
<path d="M48.688 38.5723L46.7458 37.2783C51.1259 29.5744 51.077 20.1221 46.6174 12.4639C42.1578 4.80579 33.961 0.0980914 25.099 0.105415C24.6388 0.105415 24.2658 0.478406 24.2658 0.938592C24.2658 1.39878 24.6388 1.77177 25.099 1.77177C33.3456 1.76562 40.9763 6.13538 45.1446 13.2511C49.3129 20.3668 49.3927 29.1598 45.3544 36.35L38.5646 31.8232C37.2802 30.974 35.5589 31.2535 34.6093 32.4656L31.6647 36.2558C31.2856 36.7551 30.5973 36.8999 30.0491 36.5958L29.4884 36.2867C27.6295 35.2734 25.3165 34.012 20.6564 29.3502C15.9962 24.6884 14.7323 22.3737 13.719 20.5182L13.4116 19.9574C13.1029 19.4095 13.2451 18.7179 13.7448 18.336L17.5325 15.389C18.7445 14.4394 19.0244 12.7184 18.1758 11.4337L11.4268 1.31354C10.557 0.00542935 8.81214 -0.387286 7.46575 0.422067L3.23386 2.96417C1.90418 3.74589 0.92864 5.01191 0.511807 6.49695C-1.01209 12.0494 0.134323 21.6322 14.2506 35.7501C20.3997 41.8992 25.6864 45.582 30.1565 47.6651C23.2763 49.2196 16.0626 47.5556 10.5585 43.1445C5.0543 38.7334 1.85897 32.0554 1.87742 25.0018C1.87742 24.5416 1.50443 24.1686 1.04425 24.1686C0.584062 24.1686 0.21107 24.5416 0.21107 25.0018C0.223959 38.7431 11.3578 49.8806 25.0991 49.8981C27.6734 49.899 30.232 49.4958 32.6813 48.7033C34.891 49.5286 37.2266 49.9667 39.5852 49.9981C40.9076 50.0038 42.2248 49.8317 43.5013 49.4866C44.9867 49.0702 46.2529 48.0946 47.0341 46.7645L49.5787 42.5352C50.3893 41.1884 49.9967 39.4424 48.688 38.5723ZM48.1463 41.6776L45.6076 45.9095C45.0462 46.8711 44.1342 47.578 43.0629 47.8816C40.6392 48.5482 37.3562 48.6315 33.1377 47.1109C33.0708 47.0734 32.999 47.0454 32.9244 47.0277C28.2584 45.2954 22.4651 41.6035 15.427 34.5679C1.87908 21.0207 0.711777 12.0645 2.11909 6.9378C2.42334 5.86686 3.13007 4.95499 4.09126 4.39316L8.32315 1.85437C8.90734 1.50286 9.66465 1.67325 10.042 2.24094L13.7082 7.7451L16.7853 12.3602C17.1538 12.9175 17.0327 13.6643 16.507 14.0767L12.7184 17.0237C11.5654 17.9053 11.2362 19.5005 11.946 20.7665L12.2469 21.3131C13.3118 23.2661 14.6357 25.6958 19.4691 30.5284C24.3026 35.361 26.7315 36.685 28.6836 37.7498L29.231 38.0514C30.4969 38.7612 32.0922 38.4321 32.9738 37.2791L35.9208 33.4905C36.3332 32.9651 37.0798 32.8441 37.6373 33.2122L47.7566 39.9612C48.3243 40.3371 48.4961 41.0932 48.1463 41.6776Z" fill="#272727"/>
</svg>
