<svg width="50" height="50" viewBox="0 0 50 50" fill="none" xmlns="http://www.w3.org/2000/svg">
<path d="M16.4038 34.2261C18.463 37.1294 20.5188 39.7261 21.8813 41.3986C22.0797 41.6419 22.2655 41.8677 22.4455 42.0852H18.3339C17.8736 42.0852 17.5006 42.4582 17.5006 42.9185C17.5006 43.3787 17.8736 43.7518 18.3339 43.7518H31.6671C32.1274 43.7518 32.5004 43.3787 32.5004 42.9185C32.5004 42.4582 32.1274 42.0852 31.6671 42.0852H27.5555C27.7355 41.8677 27.9213 41.6418 28.1205 41.3986C29.4821 39.7319 31.5372 37.1294 33.5972 34.2261C35.6411 31.4033 37.4807 28.4383 39.1022 25.3536C40.8039 22.0119 41.6672 19.2377 41.6672 17.1077C41.6729 12.6818 39.9167 8.43574 36.7864 5.30682C36.5773 5.09002 36.2675 5.00291 35.9761 5.07898C35.6847 5.15506 35.457 5.3824 35.3805 5.67371C35.304 5.96502 35.3907 6.27489 35.6072 6.48426C38.4248 9.30107 40.0055 13.1234 40.0005 17.1076C40.0005 18.9727 39.1989 21.4926 37.6172 24.5968C36.0324 27.61 34.2344 30.5063 32.2372 33.2636C30.2056 36.1294 28.1747 38.6969 26.8289 40.3469C26.3814 40.8952 25.9789 41.3802 25.6355 41.7903C25.4753 41.9733 25.2438 42.0782 25.0006 42.0782C24.7573 42.0782 24.5259 41.9732 24.3656 41.7903C24.0223 41.3803 23.6198 40.8952 23.1723 40.3469C21.8264 38.6978 19.7956 36.1302 17.7639 33.2636C15.7668 30.5063 13.9688 27.61 12.3839 24.5968C10.8006 21.4926 10.0006 18.9727 10.0006 17.1076C10.0001 11.0716 13.6099 5.62059 19.1674 3.26511C22.9015 1.69928 27.1082 1.69928 30.8424 3.26511C31.1166 3.38132 31.432 3.34255 31.6697 3.16316C31.9075 2.98386 32.0316 2.69128 31.9951 2.39567C31.9587 2.10007 31.7674 1.84635 31.4932 1.73014C23.007 -1.84917 13.2259 2.12682 9.64398 10.6118C8.77532 12.6671 8.32981 14.8764 8.33401 17.1076C8.33401 19.2376 9.1974 22.0119 10.8991 25.3577C12.5204 28.441 14.3601 31.4047 16.4038 34.2261Z" fill="black"/>
<path d="M25.0004 9.58519C25.4606 9.58519 25.8337 9.21214 25.8337 8.75188C25.8337 8.29163 25.4606 7.91858 25.0004 7.91858C21.0248 7.91848 17.6027 10.7269 16.827 14.6261C16.0513 18.5254 18.1381 22.4295 21.8111 23.951C25.4841 25.4725 29.7203 24.1874 31.9291 20.8818C34.1379 17.5762 33.704 13.1707 30.8929 10.3594C30.6836 10.1428 30.3738 10.0559 30.0824 10.1322C29.7911 10.2084 29.5636 10.436 29.4873 10.7273C29.411 11.0187 29.4979 11.3285 29.7145 11.5377C31.9636 13.7867 32.3107 17.311 30.5438 19.9555C28.7769 22.6001 25.388 23.6282 22.4496 22.4112C19.5112 21.1942 17.8416 18.071 18.462 14.9515C19.0823 11.8321 21.8199 9.58528 25.0004 9.58519Z" fill="black"/>
<path d="M49.6863 45.8945L44.5612 36.7278C44.0979 35.9134 43.2308 35.4128 42.2938 35.4186H36.3546C35.8943 35.4186 35.5213 35.7917 35.5213 36.2519C35.5213 36.7122 35.8943 37.0852 36.3546 37.0852H42.2938C42.6274 37.0788 42.9386 37.2527 43.1079 37.5402L48.2313 46.707C48.3708 46.9454 48.3679 47.2412 48.2238 47.477C48.0535 47.7582 47.7457 47.9267 47.4171 47.9187H2.58367C2.25535 47.9265 1.94792 47.7579 1.7778 47.477C1.63366 47.2412 1.63083 46.9454 1.77029 46.707L6.89364 37.5402C7.06269 37.2528 7.37362 37.0789 7.70693 37.0852H13.6461C14.1064 37.0852 14.4794 36.7122 14.4794 36.2519C14.4794 35.7917 14.1064 35.4186 13.6461 35.4186H7.70702C6.76952 35.4125 5.90174 35.9131 5.43788 36.7278L0.31364 45.8945C-0.113608 46.6492 -0.103745 47.575 0.339519 48.3204C0.806512 49.1142 1.66286 49.5969 2.58367 49.5855H47.4171C48.3376 49.5966 49.1937 49.114 49.6605 48.3204C50.1037 47.5749 50.1136 46.6492 49.6863 45.8945Z" fill="black"/>
<path d="M40.8329 39.5853H37.4995C37.335 39.5856 37.1742 39.6343 37.037 39.7254L34.537 41.3921C34.1541 41.6475 34.0508 42.165 34.3062 42.5479C34.5616 42.9309 35.0791 43.0342 35.462 42.7788L37.7495 41.2521H40.8329C41.2931 41.2521 41.6662 40.879 41.6662 40.4188C41.6662 39.9584 41.2931 39.5853 40.8329 39.5853Z" fill="black"/>
<path d="M35.834 45.4185C35.834 45.8788 36.207 46.2518 36.6673 46.2518H43.334C43.7943 46.2518 44.1673 45.8788 44.1673 45.4185C44.1673 44.9583 43.7943 44.5852 43.334 44.5852H36.6673C36.207 44.5852 35.834 44.9583 35.834 45.4185Z" fill="black"/>
<path d="M15.0006 42.9186C15.368 42.9191 15.6923 42.6789 15.7991 42.3273C15.9058 41.9757 15.7697 41.5958 15.464 41.392L12.964 39.7252C12.8267 39.634 12.6654 39.5853 12.5006 39.5852H9.16729C8.70703 39.5852 8.33398 39.9584 8.33398 40.4185C8.33398 40.8788 8.70713 41.2518 9.16729 41.2518H12.2506L14.5407 42.7785C14.6769 42.8695 14.8369 42.9182 15.0006 42.9186Z" fill="black"/>
<path d="M6.66729 44.5852C6.20703 44.5852 5.83398 44.9583 5.83398 45.4185C5.83398 45.8788 6.20703 46.2518 6.66729 46.2518H13.334C13.7943 46.2518 14.1673 45.8788 14.1673 45.4185C14.1673 44.9583 13.7943 44.5852 13.334 44.5852H6.66729Z" fill="black"/>
</svg>
