<svg width="20" height="20" viewBox="0 0 20 20" fill="none" xmlns="http://www.w3.org/2000/svg">
<path d="M19.0993 14.5684L16.1336 12.0466C16.1199 12.035 16.1054 12.0243 16.0903 12.0147C15.3122 11.5194 14.3132 11.6291 13.6609 12.2813L12.0439 13.8981C11.9319 14.0102 11.7649 14.0433 11.6184 13.9829C9.7925 13.2276 8.29256 12.0905 7.16021 10.6035C6.29671 9.46967 5.98544 8.56864 5.94439 8.44168C5.93951 8.41452 5.93172 8.38752 5.92074 8.36112C5.86016 8.21463 5.89327 8.04786 6.00558 7.93586L7.6224 6.31858C8.27471 5.66626 8.38427 4.66727 7.88897 3.88923C7.885 3.88297 7.88088 3.87687 7.87661 3.87076L5.73489 0.894536C5.06106 -0.150843 3.59332 -0.308772 2.71243 0.571965L2.38863 0.895757C2.38848 0.896062 2.38818 0.896367 2.38787 0.89652L1.23187 2.05253C-0.146613 3.43116 -0.372138 5.50269 0.579858 8.04358C1.39529 10.2201 3.02767 12.6021 5.17626 14.7507C7.37566 16.9501 9.8221 18.6127 12.0648 19.4323C14.2847 20.2433 16.646 20.3432 18.3173 18.6718L19.4075 17.5817C20.2844 16.7046 20.1314 15.2465 19.0993 14.5684ZM15.6496 12.6603L18.6127 15.18C18.6263 15.1916 18.6408 15.2022 18.6559 15.2119C19.2888 15.6148 19.3846 16.4998 18.855 17.0293L18.7741 17.1104L13.7203 13.3265L14.2133 12.8336C14.5986 12.4482 15.1857 12.3785 15.6496 12.6603ZM5.08227 1.32377C5.08623 1.33002 5.09035 1.33628 5.09463 1.34223L7.23543 4.31739C7.52627 4.78293 7.45898 5.37726 7.07003 5.76621L6.59228 6.24411L3.17309 1.21604L3.26479 1.12433C3.79656 0.592565 4.68081 0.69312 5.08227 1.32377ZM12.3328 18.6985C10.1947 17.9172 7.8493 16.319 5.72863 14.1984C3.6571 12.127 2.08834 9.84381 1.31121 7.76954C0.727868 6.21253 0.33648 4.05265 1.78423 2.60505L2.6108 1.77833L6.02999 6.8064L5.45336 7.38334C5.1253 7.71079 5.02215 8.19541 5.18587 8.62693C5.30917 9.13291 5.87649 10.1832 6.44884 10.9571C7.29113 12.096 8.81991 13.6706 11.3198 14.7048C11.7591 14.8865 12.26 14.7867 12.5963 14.4506L13.1623 13.8845L18.2161 17.6684L17.7649 18.1194C16.2129 19.6715 13.9543 19.291 12.3328 18.6985Z" fill="white"/>
</svg>
