<svg width="17" height="22" viewBox="0 0 17 22" fill="none" xmlns="http://www.w3.org/2000/svg">
<path d="M8.36965 0C3.75435 0 0 3.70111 0 8.25C0 14.3364 7.72213 21.5703 8.0509 21.8756C8.14079 21.9584 8.25522 22 8.36965 22C8.48408 22 8.5985 21.9584 8.68843 21.8756C9.01716 21.5703 16.7393 14.3364 16.7393 8.25C16.7393 3.70111 12.9849 0 8.36965 0ZM8.36965 20.9003C6.9084 19.4622 0.929946 13.2702 0.929946 8.25C0.929946 4.20647 4.26747 0.916652 8.36965 0.916652C12.4718 0.916652 15.8093 4.20647 15.8093 8.25C15.8093 13.2702 9.83089 19.4622 8.36965 20.9003Z" fill="white"/>
<path d="M8.36955 3.6665C5.80577 3.6665 3.71973 5.72273 3.71973 8.24985C3.71973 10.777 5.80582 12.8332 8.36955 12.8332C10.9333 12.8332 13.0194 10.777 13.0194 8.24985C13.0194 5.72273 10.9333 3.6665 8.36955 3.6665ZM8.36955 11.9165C6.31798 11.9165 4.64972 10.2716 4.64972 8.24985C4.64972 6.22809 6.31802 4.5832 8.36955 4.5832C10.4211 4.5832 12.0894 6.22809 12.0894 8.24985C12.0894 10.2716 10.4211 11.9165 8.36955 11.9165Z" fill="white"/>
</svg>
