<svg width="23" height="22" viewBox="0 0 23 22" fill="none" xmlns="http://www.w3.org/2000/svg">
<path d="M11.1597 0C6.54439 0 2.79004 3.70111 2.79004 8.25C2.79004 14.3364 10.5122 21.5703 10.8409 21.8756C10.9308 21.9584 11.0453 22 11.1597 22C11.2741 22 11.3885 21.9584 11.4785 21.8756C11.8072 21.5703 19.5293 14.3364 19.5293 8.25C19.5293 3.70111 15.775 0 11.1597 0ZM11.1597 20.9003C9.69844 19.4622 3.71999 13.2702 3.71999 8.25C3.71999 4.20647 7.05751 0.916652 11.1597 0.916652C15.2619 0.916652 18.5994 4.20647 18.5994 8.25C18.5994 13.2702 12.6209 19.4622 11.1597 20.9003Z" fill="#898686"/>
<path d="M11.1596 3.66663C8.59581 3.66663 6.50977 5.72285 6.50977 8.24997C6.50977 10.7771 8.59586 12.8333 11.1596 12.8333C13.7233 12.8333 15.8094 10.7771 15.8094 8.24997C15.8094 5.72285 13.7234 3.66663 11.1596 3.66663ZM11.1596 11.9166C9.10802 11.9166 7.43976 10.2717 7.43976 8.24997C7.43976 6.22821 9.10806 4.58332 11.1596 4.58332C13.2111 4.58332 14.8794 6.22821 14.8794 8.24997C14.8794 10.2717 13.2112 11.9166 11.1596 11.9166Z" fill="#898686"/>
</svg>
