<svg width="23" height="17" viewBox="0 0 23 17" fill="none" xmlns="http://www.w3.org/2000/svg">
<path d="M22.8596 8.16114L15.6721 0.973644C15.4849 0.786455 15.1817 0.786455 14.9946 0.973644C14.8074 1.16083 14.8074 1.46406 14.9946 1.6512L21.3641 8.02076H0.479182C0.214322 8.02076 0 8.23509 0 8.49995C0 8.7648 0.214322 8.97913 0.479182 8.97913H21.3641L14.9946 15.3486C14.8074 15.5358 14.8074 15.8391 14.9946 16.0262C15.0881 16.1198 15.2108 16.1666 15.3334 16.1666C15.456 16.1666 15.5785 16.1198 15.6722 16.0262L22.8597 8.8387C23.0468 8.65156 23.0468 8.34833 22.8596 8.16114Z" fill="#272727"/>
</svg>
