<svg width="23" height="17" viewBox="0 0 23 17" fill="none" xmlns="http://www.w3.org/2000/svg">
<path d="M0.140381 8.83885L7.32788 16.0264C7.51507 16.2135 7.81829 16.2135 8.00544 16.0264C8.19263 15.8392 8.19263 15.5359 8.00544 15.3488L1.63587 8.97923L22.5208 8.97924C22.7857 8.97924 23 8.76491 23 8.50005C23 8.2352 22.7857 8.02087 22.5208 8.02087L1.63587 8.02087L8.00544 1.65135C8.19263 1.46416 8.19263 1.16094 8.00544 0.973798C7.91187 0.880226 7.78923 0.833418 7.66664 0.833418C7.54405 0.833417 7.42145 0.880226 7.32784 0.973798L0.140336 8.1613C-0.0468076 8.34844 -0.0468076 8.65166 0.140381 8.83885Z" fill="#272727"/>
</svg>
