<svg width="22" height="23" viewBox="0 0 22 23" fill="none" xmlns="http://www.w3.org/2000/svg">
<path d="M11 0.384769C8.82441 0.384769 6.69767 1.02991 4.88873 2.2386C3.07979 3.4473 1.66989 5.16526 0.83733 7.17525C0.00476614 9.18524 -0.21307 11.397 0.211367 13.5308C0.635804 15.6645 1.68345 17.6246 3.22183 19.1629C4.76021 20.7013 6.72022 21.749 8.85401 22.1734C10.9878 22.5978 13.1995 22.38 15.2095 21.5474C17.2195 20.7149 18.9375 19.305 20.1462 17.496C21.3549 15.6871 22 13.5604 22 11.3848C22.0011 9.93992 21.7173 8.50905 21.1649 7.17398C20.6124 5.83892 19.8022 4.62586 18.7806 3.6042C17.7589 2.58255 16.5458 1.77233 15.2108 1.21991C13.8757 0.667489 12.4448 0.383697 11 0.384769ZM4.61186 19.3129C4.66746 18.922 4.76023 18.5373 4.88889 18.164C5.25479 17.1294 5.85749 16.1947 6.64889 15.4344C7.16379 14.9215 7.7581 14.495 8.40889 14.1714C9.12151 13.8189 9.89696 13.6112 10.6904 13.5603C11.1236 13.5354 11.5583 13.56 11.9859 13.6337C12.6412 13.7492 13.2721 13.9752 13.8519 14.3018C15.2949 15.0869 16.4208 16.3482 17.0378 17.8707C17.217 18.3295 17.3401 18.8083 17.4044 19.2966C15.595 20.7626 13.3369 21.5625 11.0081 21.5625C8.67938 21.5625 6.42129 20.7626 4.61186 19.2966V19.3129ZM8.80815 11.7922C8.50025 11.4943 8.2541 11.1387 8.08375 10.7456C7.91341 10.3526 7.82223 9.92978 7.81541 9.50145C7.8086 9.07312 7.8863 8.64764 8.04406 8.24936C8.20182 7.85108 8.43655 7.48781 8.73482 7.18032C9.19689 6.69014 9.80621 6.36402 10.4704 6.25143C11.2617 6.1291 12.0704 6.30237 12.7422 6.73819C13.414 7.17401 13.9018 7.84188 14.1126 8.6144C14.2022 8.9682 14.2352 9.33397 14.2104 9.6981C14.155 10.3748 13.8896 11.0173 13.4514 11.5359C13.0131 12.0544 12.4239 12.4232 11.7659 12.5907C11.5151 12.6517 11.2582 12.6845 11 12.6885C10.1837 12.6712 9.40272 12.3518 8.80815 11.7922ZM18.0644 18.7344C18.0308 18.5093 17.9846 18.2862 17.9259 18.0662C17.6616 17.0571 17.1826 16.1168 16.5217 15.3097C15.8608 14.5025 15.0335 13.8475 14.0963 13.3892C13.8111 13.2507 13.5015 13.1366 13.2081 13.0225H13.1511L13.3548 12.8677C13.5651 12.7142 13.7614 12.5425 13.9415 12.3544C14.3283 11.9523 14.6284 11.4751 14.8233 10.9523C15.0181 10.4295 15.1035 9.87228 15.0741 9.31514C15.0564 8.94023 14.985 8.5698 14.8622 8.21514C14.5899 7.38512 14.058 6.66461 13.3449 6.15993C12.6319 5.65524 11.7756 5.3931 10.9022 5.41217C10.6083 5.41751 10.3158 5.45578 10.0304 5.52625C9.1707 5.74456 8.40435 6.23429 7.84509 6.92271C7.28584 7.61114 6.9635 8.46156 6.92593 9.34773C6.91082 9.6897 6.94096 10.0322 7.01556 10.3662C7.18632 11.1946 7.61063 11.9492 8.22963 12.5255C8.41704 12.6966 8.62074 12.8351 8.8163 12.9899L8.88148 13.0388H8.83259L8.65333 13.104C8.26676 13.2417 7.8932 13.4135 7.53704 13.6174C6.08945 14.4286 4.9668 15.7154 4.35926 17.2596C4.17146 17.7381 4.03489 18.2352 3.95186 18.7425C2.48665 17.3349 1.47594 15.5212 1.04965 13.5346C0.623371 11.548 0.800997 9.4793 1.5597 7.59445C2.3184 5.7096 3.6235 4.09475 5.30722 2.95748C6.99094 1.82021 8.97633 1.21252 11.0081 1.21252C13.04 1.21252 15.0254 1.82021 16.7091 2.95748C18.3928 4.09475 19.6979 5.7096 20.4566 7.59445C21.2153 9.4793 21.3929 11.548 20.9666 13.5346C20.5404 15.5212 19.5296 17.3349 18.0644 18.7425V18.7344Z" fill="white"/>
</svg>
