<svg width="20" height="20" viewBox="0 0 20 20" fill="none" xmlns="http://www.w3.org/2000/svg">
<path d="M19.0993 14.5685L16.1336 12.0467C16.1199 12.0351 16.1054 12.0244 16.0903 12.0148C15.3122 11.5195 14.3132 11.6292 13.6609 12.2814L12.0439 13.8982C11.9319 14.0103 11.7649 14.0435 11.6184 13.983C9.7925 13.2277 8.29256 12.0906 7.16021 10.6037C6.29671 9.46979 5.98544 8.56876 5.94439 8.44181C5.93951 8.41465 5.93172 8.38764 5.92074 8.36124C5.86016 8.21476 5.89327 8.04798 6.00558 7.93598L7.6224 6.3187C8.27471 5.66639 8.38427 4.66739 7.88897 3.88935C7.885 3.88309 7.88088 3.87699 7.87661 3.87088L5.73489 0.894658C5.06106 -0.150721 3.59332 -0.30865 2.71243 0.572088L2.38863 0.895879C2.38848 0.896184 2.38818 0.896489 2.38787 0.896642L1.23187 2.05265C-0.146613 3.43128 -0.372138 5.50281 0.579858 8.0437C1.39529 10.2202 3.02767 12.6023 5.17626 14.7509C7.37566 16.9503 9.8221 18.6129 12.0648 19.4324C14.2847 20.2434 16.646 20.3434 18.3173 18.6719L19.4075 17.5818C20.2844 16.7047 20.1314 15.2466 19.0993 14.5685ZM15.6496 12.6604L18.6127 15.1801C18.6263 15.1917 18.6408 15.2024 18.6559 15.212C19.2888 15.615 19.3846 16.5 18.855 17.0295L18.7741 17.1105L13.7203 13.3266L14.2133 12.8337C14.5986 12.4483 15.1857 12.3786 15.6496 12.6604ZM5.08227 1.32389C5.08623 1.33014 5.09035 1.3364 5.09463 1.34235L7.23543 4.31751C7.52627 4.78305 7.45898 5.37738 7.07003 5.76633L6.59228 6.24424L3.17309 1.21616L3.26479 1.12446C3.79656 0.592687 4.68081 0.693242 5.08227 1.32389ZM12.3328 18.6986C10.1947 17.9174 7.8493 16.3192 5.72863 14.1985C3.6571 12.1271 2.08834 9.84394 1.31121 7.76966C0.727868 6.21265 0.33648 4.05277 1.78423 2.60517L2.6108 1.77845L6.02999 6.80652L5.45336 7.38346C5.1253 7.71091 5.02215 8.19553 5.18587 8.62705C5.30917 9.13303 5.87649 10.1833 6.44884 10.9572C7.29113 12.0961 8.81991 13.6707 11.3198 14.7049C11.7591 14.8867 12.26 14.7869 12.5963 14.4507L13.1623 13.8846L18.2161 17.6685L17.7649 18.1195C16.2129 19.6717 13.9543 19.2911 12.3328 18.6986Z" fill="#272727"/>
</svg>
