<svg width="18" height="16" viewBox="0 0 18 16" fill="none" xmlns="http://www.w3.org/2000/svg">
<g clip-path="url(#clip0)">
<path d="M15.3737 10.5236H5.81049C5.72654 10.5227 5.6453 10.4938 5.57962 10.4415C5.51393 10.3892 5.46755 10.3166 5.4478 10.235L3.73796 2.679L3.29385 0.740059H0.370095C0.27194 0.740059 0.177805 0.701074 0.108398 0.631681C0.038992 0.562287 0 0.468169 0 0.370032C0 0.271894 0.038992 0.177776 0.108398 0.108382C0.177805 0.0389887 0.27194 3.74586e-06 0.370095 3.74586e-06H3.58992C3.67421 -0.00037532 3.75611 0.0280258 3.82206 0.0805091C3.88801 0.132992 3.93407 0.206413 3.95261 0.288625L4.38933 2.22017H17.5499C17.6075 2.21958 17.6643 2.2327 17.7158 2.25843C17.7673 2.28417 17.8119 2.32179 17.846 2.36818C17.8793 2.41327 17.902 2.46535 17.9122 2.52048C17.9225 2.5756 17.9201 2.63234 17.9052 2.68641L15.729 10.2572C15.7066 10.334 15.6599 10.4015 15.5958 10.4496C15.5317 10.4976 15.4538 10.5236 15.3737 10.5236ZM6.10657 9.78354H15.0999L17.0614 2.96023H4.55957L6.10657 9.78354Z" fill="white"/>
<path d="M6.83194 16C6.53915 16 6.25293 15.9132 6.00949 15.7506C5.76604 15.5879 5.5763 15.3568 5.46425 15.0863C5.3522 14.8158 5.32289 14.5182 5.38001 14.2311C5.43713 13.944 5.57812 13.6803 5.78516 13.4733C5.99219 13.2663 6.25597 13.1253 6.54313 13.0682C6.8303 13.0111 7.12796 13.0404 7.39846 13.1524C7.66896 13.2645 7.90017 13.4542 8.06283 13.6976C8.2255 13.941 8.31232 14.2272 8.31232 14.5199C8.31232 14.9124 8.15635 15.2889 7.87873 15.5665C7.6011 15.8441 7.22456 16 6.83194 16ZM6.83194 13.7798C6.68555 13.7798 6.54244 13.8232 6.42072 13.9046C6.29899 13.9859 6.20412 14.1015 6.1481 14.2367C6.09207 14.3719 6.07742 14.5207 6.10598 14.6643C6.13454 14.8078 6.20503 14.9397 6.30855 15.0432C6.41207 15.1467 6.54396 15.2172 6.68754 15.2457C6.83112 15.2743 6.97995 15.2596 7.1152 15.2036C7.25045 15.1476 7.36606 15.0527 7.44739 14.931C7.52872 14.8093 7.57213 14.6663 7.57213 14.5199C7.5741 14.4215 7.55641 14.3236 7.5201 14.2321C7.48378 14.1406 7.42957 14.0573 7.36064 13.987C7.29171 13.9167 7.20945 13.8609 7.11866 13.8227C7.02788 13.7846 6.9304 13.765 6.83194 13.765V13.7798Z" fill="white"/>
<path d="M14.3153 16C14.0226 16 13.7363 15.9132 13.4929 15.7506C13.2494 15.5879 13.0597 15.3568 12.9476 15.0863C12.8356 14.8158 12.8063 14.5182 12.8634 14.2311C12.9205 13.944 13.0615 13.6803 13.2686 13.4733C13.4756 13.2663 13.7394 13.1253 14.0265 13.0682C14.3137 13.0111 14.6114 13.0404 14.8819 13.1524C15.1524 13.2645 15.3836 13.4542 15.5462 13.6976C15.7089 13.941 15.7957 14.2272 15.7957 14.5199C15.7957 14.9124 15.6398 15.2889 15.3621 15.5665C15.0845 15.8441 14.708 16 14.3153 16ZM14.3153 13.7798C14.1689 13.7798 14.0258 13.8232 13.9041 13.9046C13.7824 13.9859 13.6875 14.1015 13.6315 14.2367C13.5755 14.3719 13.5608 14.5207 13.5894 14.6643C13.6179 14.8078 13.6884 14.9397 13.7919 15.0432C13.8955 15.1467 14.0274 15.2172 14.1709 15.2457C14.3145 15.2743 14.4633 15.2596 14.5986 15.2036C14.7339 15.1476 14.8495 15.0527 14.9308 14.931C15.0121 14.8093 15.0555 14.6663 15.0555 14.5199C15.0575 14.4215 15.0398 14.3236 15.0035 14.2321C14.9672 14.1406 14.913 14.0573 14.844 13.987C14.7751 13.9167 14.6928 13.8609 14.6021 13.8227C14.5113 13.7846 14.4138 13.765 14.3153 13.765V13.7798Z" fill="white"/>
<path d="M15.4261 12.766H5.71476C5.32213 12.766 4.94559 12.61 4.66797 12.3324C4.39034 12.0549 4.23437 11.6784 4.23438 11.2858C4.23437 10.8933 4.39034 10.5168 4.66797 10.2393C4.94559 9.96168 5.32213 9.80574 5.71476 9.80574H14.9597C15.0579 9.80574 15.152 9.84472 15.2214 9.91412C15.2908 9.98351 15.3298 10.0776 15.3298 10.1758C15.3298 10.2739 15.2908 10.368 15.2214 10.4374C15.152 10.5068 15.0579 10.5458 14.9597 10.5458H5.71476C5.51844 10.5458 5.33017 10.6238 5.19136 10.7626C5.05255 10.9013 4.97457 11.0896 4.97457 11.2858C4.97457 11.4821 5.05255 11.6704 5.19136 11.8091C5.33017 11.9479 5.51844 12.0259 5.71476 12.0259H15.4261C15.5242 12.0259 15.6183 12.0649 15.6877 12.1343C15.7572 12.2037 15.7961 12.2978 15.7961 12.3959C15.7961 12.4941 15.7572 12.5882 15.6877 12.6576C15.6183 12.727 15.5242 12.766 15.4261 12.766Z" fill="white"/>
</g>
<defs>
<clipPath id="clip0">
<rect width="17.92" height="16" fill="white"/>
</clipPath>
</defs>
</svg>
