<svg width="30" height="30" viewBox="0 0 30 30" fill="none" xmlns="http://www.w3.org/2000/svg">
<path d="M29.0625 8.43751H27.0187L24.3316 2.61622C24.2846 2.51391 24.2022 2.432 24.0997 2.3855C23.9971 2.33901 23.8812 2.33105 23.7732 2.3631L3.21328 8.43751H0.9375C0.81318 8.43751 0.693951 8.4869 0.606044 8.5748C0.518136 8.66271 0.46875 8.78194 0.46875 8.90626V26.7188C0.46875 26.8431 0.518136 26.9623 0.606044 27.0502C0.693951 27.1381 0.81318 27.1875 0.9375 27.1875H29.0625C29.1868 27.1875 29.306 27.1381 29.394 27.0502C29.4819 26.9623 29.5312 26.8431 29.5312 26.7188V8.90626C29.5312 8.78194 29.4819 8.66271 29.394 8.5748C29.306 8.4869 29.1868 8.43751 29.0625 8.43751ZM23.6502 3.37677L25.9863 8.43751H6.52207L23.6502 3.37677ZM28.5938 26.25H1.40625V9.37501H28.5938V26.25Z" fill="#272727"/>
<path d="M23.4375 16.4062H27.1875C27.3118 16.4062 27.431 16.3569 27.519 16.269C27.6069 16.181 27.6562 16.0618 27.6562 15.9375V10.7812C27.6562 10.6569 27.6069 10.5377 27.519 10.4498C27.431 10.3619 27.3118 10.3125 27.1875 10.3125H23.4375C23.3132 10.3125 23.194 10.3619 23.106 10.4498C23.0181 10.5377 22.9688 10.6569 22.9688 10.7812V15.9375C22.9688 16.0618 23.0181 16.181 23.106 16.269C23.194 16.3569 23.3132 16.4062 23.4375 16.4062ZM23.9062 11.25H26.7188V15.4688H23.9062V11.25Z" fill="#272727"/>
<path d="M27.1875 22.9688H25.3125C25.1882 22.9688 25.069 23.0181 24.981 23.106C24.8931 23.194 24.8438 23.3132 24.8438 23.4375C24.8438 23.5618 24.8931 23.681 24.981 23.769C25.069 23.8569 25.1882 23.9062 25.3125 23.9062H27.1875C27.3118 23.9062 27.431 23.8569 27.519 23.769C27.6069 23.681 27.6562 23.5618 27.6562 23.4375C27.6562 23.3132 27.6069 23.194 27.519 23.106C27.431 23.0181 27.3118 22.9688 27.1875 22.9688Z" fill="#272727"/>
<path d="M22.0312 25.3125H27.1875C27.3118 25.3125 27.431 25.2631 27.519 25.1752C27.6069 25.0873 27.6562 24.9681 27.6562 24.8438C27.6562 24.7194 27.6069 24.6002 27.519 24.5123C27.431 24.4244 27.3118 24.375 27.1875 24.375H22.0312C21.9069 24.375 21.7877 24.4244 21.6998 24.5123C21.6119 24.6002 21.5625 24.7194 21.5625 24.8438C21.5625 24.9681 21.6119 25.0873 21.6998 25.1752C21.7877 25.2631 21.9069 25.3125 22.0312 25.3125Z" fill="#272727"/>
<path d="M15 25.3125C15.1243 25.3125 15.2435 25.2631 15.3315 25.1752C15.4194 25.0873 15.4688 24.9681 15.4688 24.8438V10.7812C15.4688 10.6569 15.4194 10.5377 15.3315 10.4498C15.2435 10.3619 15.1243 10.3125 15 10.3125C14.8757 10.3125 14.7565 10.3619 14.6685 10.4498C14.5806 10.5377 14.5312 10.6569 14.5312 10.7812V24.8438C14.5312 24.9681 14.5806 25.0873 14.6685 25.1752C14.7565 25.2631 14.8757 25.3125 15 25.3125Z" fill="#272727"/>
<path d="M20.1562 25.3125H20.625C20.7493 25.3125 20.8685 25.2631 20.9565 25.1752C21.0444 25.0873 21.0938 24.9681 21.0938 24.8438C21.0938 24.7194 21.0444 24.6002 20.9565 24.5123C20.8685 24.4244 20.7493 24.375 20.625 24.375H20.1562C20.0319 24.375 19.9127 24.4244 19.8248 24.5123C19.7369 24.6002 19.6875 24.7194 19.6875 24.8438C19.6875 24.9681 19.7369 25.0873 19.8248 25.1752C19.9127 25.2631 20.0319 25.3125 20.1562 25.3125Z" fill="#272727"/>
</svg>
