<svg width="30" height="30" viewBox="0 0 30 30" fill="none" xmlns="http://www.w3.org/2000/svg">
<g clip-path="url(#clip0)">
<path d="M27.1308 7.14982H22.4859V5.81864C22.4859 5.57351 22.2872 5.37484 22.0421 5.37484H21.6575V4.75342C21.6575 2.68158 19.9718 0.996094 17.9 0.996094H11.9829C9.91106 0.996094 8.22557 2.68158 8.22557 4.75342V5.37484H7.84082C7.59569 5.37484 7.39702 5.57351 7.39702 5.81864V7.15005H5.70329C5.45816 7.15005 5.25949 7.34872 5.25949 7.59362C5.25949 7.83876 5.45816 8.03743 5.70329 8.03743H27.1308C28.1912 8.03743 29.0539 8.90031 29.0539 9.96072V13.8659C29.0539 14.783 28.4006 15.5766 27.5055 15.7524L16.794 17.737H13.0886L2.38198 15.753C1.48224 15.5766 0.829012 14.783 0.829012 13.8659V9.9605C0.829012 8.90008 1.69167 8.03743 2.75208 8.03743H3.64335C3.88848 8.03743 4.08715 7.83876 4.08715 7.59362C4.08715 7.34849 3.88848 7.14982 3.64335 7.14982H2.75208C1.20232 7.14982 -0.0585938 8.41073 -0.0585938 9.9605V13.8659C-0.0585938 14.7965 0.401917 15.6398 1.12473 16.1552V26.2919C1.12473 27.8417 2.38564 29.1026 3.9354 29.1026H21.3616C21.6067 29.1026 21.8054 28.9039 21.8054 28.6588C21.8054 28.4137 21.6067 28.215 21.3616 28.215H3.9354C2.87499 28.215 2.01233 27.3523 2.01233 26.2919V16.5766C2.07917 16.5949 2.14692 16.6114 2.21581 16.6249L12.6041 18.5498V23.2103C12.6041 23.4044 12.7302 23.5758 12.9156 23.6337L14.8091 24.2256C14.8522 24.2389 14.8968 24.2457 14.9414 24.2457C14.9861 24.2457 15.0307 24.2389 15.0737 24.2256L16.9673 23.6337C17.1527 23.5758 17.2788 23.4044 17.2788 23.2103V18.5498L27.6716 16.6242C27.7389 16.6109 27.8051 16.5946 27.8705 16.577V26.2919C27.8705 27.3526 27.0079 28.215 25.9475 28.215H23.4375C23.1924 28.215 22.9937 28.4137 22.9937 28.6588C22.9937 28.9039 23.1924 29.1026 23.4375 29.1026H25.9475C27.4972 29.1026 28.7579 27.8417 28.7579 26.2919V16.1559C29.4803 15.6409 29.9415 14.797 29.9415 13.8659V9.9605C29.9415 8.41073 28.6806 7.14982 27.1308 7.14982ZM9.11295 4.75342C9.11295 3.17093 10.4004 1.8837 11.9829 1.8837H17.9C19.4825 1.8837 20.7699 3.17093 20.7699 4.75342V5.37484H19.764V4.75342C19.764 3.72574 18.9277 2.88964 17.9 2.88964H16.9162C16.6711 2.88964 16.4724 3.08831 16.4724 3.33321C16.4724 3.57834 16.6711 3.77701 16.9162 3.77701H17.9C18.4383 3.77701 18.8764 4.21509 18.8764 4.75342V5.37484H18.4916C18.2465 5.37484 18.0478 5.57351 18.0478 5.81864V7.15005H11.8348V5.81864C11.8348 5.57351 11.6361 5.37484 11.391 5.37484H11.0065V4.75342C11.0065 4.21509 11.4446 3.77701 11.9829 3.77701H14.8526C15.0978 3.77701 15.2964 3.57834 15.2964 3.33321C15.2964 3.08831 15.0978 2.88964 14.8526 2.88964H11.9829C10.9552 2.88964 10.1189 3.72574 10.1189 4.75342V5.37484H9.11295V4.75342ZM8.28462 7.14982V6.26222H10.9474V7.14982H8.28462ZM18.9354 7.14982V6.26222H21.5982V7.14982H18.9354ZM13.4917 18.6244H16.3912V20.3403H13.4917V18.6244ZM16.3912 22.8839L14.9414 23.3371L13.4917 22.8839V21.2279H16.3912V22.8839Z" fill="#272727"/>
</g>
<defs>
<clipPath id="clip0">
<rect width="30" height="30" fill="#272727"/>
</clipPath>
</defs>
</svg>
