<svg width="30" height="30" viewBox="0 0 30 30" fill="none" xmlns="http://www.w3.org/2000/svg">
<path d="M11.4844 13.8281C12.1305 13.8281 12.6562 14.3538 12.6562 15C12.6562 15.3236 12.9186 15.5859 13.2422 15.5859C13.5658 15.5859 13.8281 15.3236 13.8281 15C13.8281 13.9099 13.0801 12.9913 12.0703 12.7304V11.4844C12.0703 11.1608 11.808 10.8984 11.4844 10.8984C11.1608 10.8984 10.8984 11.1608 10.8984 11.4844V12.7304C9.88869 12.9913 9.14062 13.9099 9.14062 15C9.14062 16.2923 10.192 17.3438 11.4844 17.3438C12.1305 17.3438 12.6562 17.8695 12.6562 18.5156C12.6562 19.1618 12.1305 19.6875 11.4844 19.6875C10.8382 19.6875 10.3125 19.1618 10.3125 18.5156C10.3125 18.192 10.0502 17.9297 9.72656 17.9297C9.40295 17.9297 9.14062 18.192 9.14062 18.5156C9.14062 19.6057 9.88869 20.5243 10.8984 20.7852V22.0312C10.8984 22.3549 11.1608 22.6172 11.4844 22.6172C11.808 22.6172 12.0703 22.3549 12.0703 22.0312V20.7852C13.0801 20.5243 13.8281 19.6057 13.8281 18.5156C13.8281 17.2233 12.7767 16.1719 11.4844 16.1719C10.8382 16.1719 10.3125 15.6462 10.3125 15C10.3125 14.3538 10.8382 13.8281 11.4844 13.8281Z" fill="#272727"/>
<path d="M9.72656 5.03906H20.2734C20.5971 5.03906 20.8594 4.77674 20.8594 4.45312C20.8594 4.12951 20.5971 3.86719 20.2734 3.86719H9.72656C9.40295 3.86719 9.14062 4.12951 9.14062 4.45312C9.14062 4.77674 9.40295 5.03906 9.72656 5.03906Z" fill="#272727"/>
<path d="M9.72656 8.55469H20.2734C20.5971 8.55469 20.8594 8.29236 20.8594 7.96875C20.8594 7.64514 20.5971 7.38281 20.2734 7.38281H9.72656C9.40295 7.38281 9.14062 7.64514 9.14062 7.96875C9.14062 8.29236 9.40295 8.55469 9.72656 8.55469Z" fill="#272727"/>
<path d="M20.2734 10.8984H16.7578C16.4342 10.8984 16.1719 11.1608 16.1719 11.4844C16.1719 11.808 16.4342 12.0703 16.7578 12.0703H20.2734C20.5971 12.0703 20.8594 11.808 20.8594 11.4844C20.8594 11.1608 20.5971 10.8984 20.2734 10.8984Z" fill="#272727"/>
<path d="M20.2734 14.4141H16.7578C16.4342 14.4141 16.1719 14.6764 16.1719 15C16.1719 15.3236 16.4342 15.5859 16.7578 15.5859H20.2734C20.5971 15.5859 20.8594 15.3236 20.8594 15C20.8594 14.6764 20.5971 14.4141 20.2734 14.4141Z" fill="#272727"/>
<path d="M20.2734 17.9297H16.7578C16.4342 17.9297 16.1719 18.192 16.1719 18.5156C16.1719 18.8392 16.4342 19.1016 16.7578 19.1016H20.2734C20.5971 19.1016 20.8594 18.8392 20.8594 18.5156C20.8594 18.192 20.5971 17.9297 20.2734 17.9297Z" fill="#272727"/>
<path d="M20.8594 22.0312C20.8594 21.7076 20.5971 21.4453 20.2734 21.4453H16.7578C16.4342 21.4453 16.1719 21.7076 16.1719 22.0312C16.1719 22.3549 16.4342 22.6172 16.7578 22.6172H20.2734C20.5971 22.6172 20.8594 22.3549 20.8594 22.0312Z" fill="#272727"/>
<path d="M10.8984 29.4141C10.8984 29.7377 11.1608 30 11.4844 30C11.808 30 12.0703 29.7377 12.0703 29.4141C12.0703 29.0904 11.808 28.8281 11.4844 28.8281C11.1608 28.8281 10.8984 29.0904 10.8984 29.4141Z" fill="#272727"/>
<path d="M6.21094 30H8.84766C9.17127 30 9.43359 29.7377 9.43359 29.4141C9.43359 29.0904 9.17127 28.8281 8.84766 28.8281H6.21094C4.79613 28.8281 3.61236 27.82 3.34008 26.4844H17.9297V26.7773C17.9297 27.5558 18.2071 28.2705 18.6683 28.8281H14.1211C13.7975 28.8281 13.5352 29.0904 13.5352 29.4141C13.5352 29.7377 13.7975 30 14.1211 30H21.1523C22.9293 30 24.375 28.5543 24.375 26.7773C24.375 25.9627 24.375 5.35693 24.375 4.10156C24.375 2.48145 25.6859 1.17188 27.3047 1.17188C27.6283 1.17188 27.8906 0.909551 27.8906 0.585938C27.8906 0.262324 27.6283 0 27.3047 0H9.72656C7.46496 0 5.625 1.83996 5.625 4.10156V25.3125H2.69531C2.3717 25.3125 2.10938 25.5748 2.10938 25.8984C2.10938 28.16 3.94934 30 6.21094 30ZM6.79688 4.10156C6.79688 2.48613 8.11113 1.17188 9.72656 1.17129H24.4338C23.6487 1.93898 23.2031 2.98453 23.2031 4.10156V26.7773C23.2031 27.9081 22.2831 28.8281 21.1523 28.8281C20.0215 28.8281 19.1016 27.9081 19.1016 26.7773V25.8984C19.1016 25.5748 18.8392 25.3125 18.5156 25.3125H6.79688V4.10156Z" fill="#272727"/>
</svg>
