<svg width="30" height="30" viewBox="0 0 30 30" fill="none" xmlns="http://www.w3.org/2000/svg">
<g clip-path="url(#clip0)">
<path d="M13.2504 24.2512H12.4837H8.70304H7.72835C7.48521 24.2512 7.28809 24.4483 7.28809 24.6915C7.28809 24.9347 7.48521 25.1318 7.72835 25.1318H8.26277V29.5372C8.26277 29.6842 8.33615 29.8215 8.45843 29.9032C8.5807 29.9848 8.73562 30.0001 8.87145 29.9439L10.5934 29.2312L12.3154 29.9439C12.3696 29.9663 12.4267 29.9774 12.4837 29.9774C12.5696 29.9774 12.655 29.9522 12.7284 29.9031C12.8507 29.8214 12.9241 29.6842 12.9241 29.5371V25.1317H13.2505C13.4936 25.1317 13.6908 24.9346 13.6908 24.6914C13.6908 24.4482 13.4936 24.2512 13.2504 24.2512ZM12.0435 28.8785L10.7618 28.348C10.7079 28.3257 10.6507 28.3145 10.5935 28.3145C10.5362 28.3145 10.479 28.3257 10.4251 28.348L9.14342 28.8785V25.1318H12.0436V28.8785H12.0435Z" fill="#272727"/>
<path d="M9.46468 17.1747C9.22154 17.1747 9.02441 17.3717 9.02441 17.6149C9.02441 17.8581 9.22154 18.0552 9.46468 18.0552H15.7218C15.965 18.0552 16.1621 17.8581 16.1621 17.6149C16.1621 17.3717 15.965 17.1747 15.7218 17.1747H9.46468Z" fill="#272727"/>
<path d="M17.2377 20.2117C17.3598 20.2934 17.5148 20.3087 17.6507 20.2524L19.3727 19.5397L21.0946 20.2524C21.1488 20.2749 21.206 20.2859 21.2629 20.2859C21.3488 20.2859 21.4342 20.2608 21.5077 20.2116C21.6299 20.1299 21.7033 19.9927 21.7033 19.8456V15.4402H22.2377C22.4809 15.4402 22.678 15.2432 22.678 15C22.678 14.7568 22.4809 14.5597 22.2377 14.5597H21.263H17.4824H16.7157C16.4725 14.5597 16.2754 14.7568 16.2754 15C16.2754 15.2432 16.4725 15.4402 16.7157 15.4402H17.0421V19.8456C17.0421 19.9927 17.1155 20.13 17.2377 20.2117ZM20.8227 15.4403V19.187L19.541 18.6565C19.4872 18.6342 19.4299 18.623 19.3727 18.623C19.3155 18.623 19.2582 18.6342 19.2043 18.6565L17.9226 19.187V15.4403H20.8227Z" fill="#272727"/>
<path d="M29.1229 3.13385C29.6065 3.13385 30 2.74037 30 2.25673V0.899771C30 0.416184 29.6065 0.0227051 29.1229 0.0227051H5.33037C2.4157 0.0227051 0.0444374 2.39397 0.0444374 5.30864C0.0444374 7.14554 0.986487 8.76637 2.41259 9.71405H0.888161C0.404515 9.71405 0.011036 10.1075 0.011036 10.5912V11.9481C0.011036 12.4317 0.404515 12.8252 0.888161 12.8252H1.74392V17.1747H0.888161C0.404515 17.1747 0.011036 17.5682 0.011036 18.0518V19.4087C0.011036 19.8924 0.404515 20.2859 0.888161 20.2859H2.36816C0.942049 21.2336 0 22.8544 0 24.6914C0 27.6061 2.37127 29.9773 5.28594 29.9773H6.94192C7.18506 29.9773 7.38219 29.7803 7.38219 29.5371C7.38219 29.2939 7.18506 29.0968 6.94192 29.0968H5.28594C2.85679 29.0968 0.88053 27.1205 0.88053 24.6914C0.88053 22.2622 2.85679 20.2859 5.28594 20.2859H14.6486H15.7219C15.9651 20.2859 16.1621 20.0889 16.1621 19.8457C16.1621 19.6025 15.9651 19.4054 15.7219 19.4054L14.6534 19.4056C14.6518 19.4056 14.6503 19.4054 14.6486 19.4054H5.28594C5.23434 19.4054 5.18297 19.4063 5.13173 19.4078L0.891507 19.4088L0.888102 18.0553H7.58846C7.83161 18.0553 8.02873 17.8582 8.02873 17.615C8.02873 17.3718 7.83161 17.1747 7.58846 17.1747H2.62445V12.8252H24.6343C25.2291 12.8252 25.8113 13.0704 26.2316 13.4979C26.6435 13.9169 26.865 14.4639 26.8551 15.0379C26.8349 16.2161 25.8595 17.1747 24.6807 17.1747H23.0247C22.7815 17.1747 22.5844 17.3717 22.5844 17.6149C22.5844 17.8581 22.7815 18.0552 23.0247 18.0552H24.6807C26.3368 18.0552 27.7072 16.7084 27.7355 15.0529C27.7494 14.2409 27.4383 13.4693 26.8594 12.8806C26.2748 12.2857 25.4637 11.9446 24.6343 11.9446L2.23561 11.9478C2.2187 11.9459 2.20162 11.9446 2.18424 11.9446C2.16681 11.9446 2.14967 11.9459 2.13276 11.9479L0.891624 11.9481L0.888161 10.5945H5.33032H5.44825H6.98636C7.2295 10.5945 7.42662 10.3975 7.42662 10.1543C7.42662 9.91105 7.2295 9.71399 6.98636 9.71399H5.44831H5.33037C2.90123 9.71399 0.924967 7.73773 0.924967 5.30858C0.924967 2.87944 2.90123 0.903176 5.33037 0.903176L29.1195 0.899713L29.1229 2.25332H25.8154C25.5722 2.25332 25.3752 2.45038 25.3752 2.69359C25.3752 2.93679 25.5722 3.13385 25.8154 3.13385H27.4553V7.48332H14.2892C14.046 7.48332 13.8489 7.68038 13.8489 7.92358C13.8489 8.16678 14.046 8.36385 14.2892 8.36385L27.8451 8.36073C27.8617 8.36261 27.8785 8.36385 27.8955 8.36385C27.9126 8.36385 27.9294 8.36261 27.946 8.36073L29.1195 8.36044L29.1229 9.71399H24.6807H16.5118H14.2892C14.046 9.71399 13.8489 9.91105 13.8489 10.1543C13.8489 10.3975 14.046 10.5945 14.2892 10.5945H16.5118H24.6807C27.1099 10.5945 29.0861 12.5708 29.0861 15C29.0861 17.4291 27.1099 19.4054 24.6807 19.4054H24.242H23.0247C22.7815 19.4054 22.5844 19.6025 22.5844 19.8457C22.5844 20.0889 22.7815 20.2859 23.0247 20.2859H24.6807C24.6893 20.2859 24.6977 20.2856 24.7063 20.2856L29.0751 20.2825L29.0786 21.6361H5.33237C4.50291 21.6361 3.69188 21.9772 3.10715 22.572C2.52835 23.1609 2.21723 23.9324 2.23114 24.7444C2.2595 26.3998 3.6299 27.7467 5.286 27.7467H6.94198C7.18512 27.7467 7.38224 27.5496 7.38224 27.3064C7.38224 27.0632 7.18512 26.8661 6.94198 26.8661H5.286C4.1072 26.8661 3.13175 25.9076 3.11156 24.7293C3.1017 24.1553 3.32312 23.6084 3.73509 23.1894C4.15534 22.7619 4.73754 22.5167 5.33237 22.5167H27.3422V26.8662H14.2448C14.0017 26.8662 13.8045 27.0632 13.8045 27.3064C13.8045 27.5496 14.0017 27.7467 14.2448 27.7467L29.0751 27.7433L29.0786 29.0969H14.2448C14.0017 29.0969 13.8045 29.2939 13.8045 29.5371C13.8045 29.7803 14.0017 29.9774 14.2448 29.9774H29.0785C29.5621 29.9774 29.9556 29.5839 29.9556 29.1003V27.7434C29.9556 27.2597 29.5621 26.8662 29.0785 26.8662H28.2227V22.5167H29.0785C29.5621 22.5167 29.9556 22.1232 29.9556 21.6396V20.2827C29.9556 19.799 29.5621 19.4056 29.0785 19.4056H27.5985C29.0246 18.4579 29.9667 16.8371 29.9667 15.0002C29.9667 13.1632 29.0246 11.5424 27.5985 10.5947H29.1229C29.6065 10.5947 30 10.2012 30 9.71757V8.36068C30 7.87703 29.6065 7.48355 29.1229 7.48355H28.3358V3.13385H29.1229Z" fill="#272727"/>
<path d="M24.3798 2.69368C24.3798 2.45048 24.1827 2.25342 23.9395 2.25342H5.37706C4.5476 2.25342 3.73652 2.59459 3.15185 3.18936C2.57305 3.77814 2.26193 4.54966 2.27584 5.36175C2.30419 7.01714 3.67459 8.36394 5.33069 8.36394H6.98667C7.22982 8.36394 7.42694 8.16688 7.42694 7.92368C7.42694 7.68047 7.22982 7.48341 6.98667 7.48341H5.33069C4.15189 7.48341 3.17644 6.52487 3.15625 5.34666C3.14639 4.77267 3.36781 4.22575 3.77978 3.80673C4.20003 3.3792 4.78224 3.13401 5.37706 3.13401H23.9395C24.1827 3.13395 24.3798 2.93688 24.3798 2.69368Z" fill="#272727"/>
<path d="M8.50237 10.5204C8.62465 10.6022 8.77956 10.6174 8.9154 10.5612L10.6374 9.84845L12.3593 10.5612C12.4135 10.5836 12.4707 10.5946 12.5277 10.5946C12.6136 10.5946 12.6989 10.5695 12.7724 10.5204C12.8946 10.4386 12.968 10.3014 12.968 10.1543V5.74894H13.2944C13.5376 5.74894 13.7347 5.55188 13.7347 5.30867C13.7347 5.06547 13.5376 4.86841 13.2944 4.86841H12.5277H8.74704H7.7723C7.52915 4.86841 7.33203 5.06547 7.33203 5.30867C7.33203 5.55188 7.52915 5.74894 7.7723 5.74894H8.30672V10.1543C8.30672 10.3014 8.3801 10.4387 8.50237 10.5204ZM12.0874 5.74894V9.49565L10.8057 8.96516C10.7518 8.94286 10.6946 8.9317 10.6374 8.9317C10.5801 8.9317 10.5229 8.94286 10.469 8.96516L9.18731 9.49565V5.74894H12.0874Z" fill="#272727"/>
</g>
<defs>
<clipPath id="clip0">
<rect width="30" height="30" fill="white"/>
</clipPath>
</defs>
</svg>
