<svg width="30" height="30" viewBox="0 0 30 30" fill="none" xmlns="http://www.w3.org/2000/svg">
<path d="M27.6562 5.15625H2.34375C1.97079 5.15625 1.6131 5.30441 1.34938 5.56813C1.08566 5.83185 0.9375 6.18954 0.9375 6.5625V23.4375C0.9375 23.8105 1.08566 24.1681 1.34938 24.4319C1.6131 24.6956 1.97079 24.8438 2.34375 24.8438H27.6562C28.0292 24.8438 28.3869 24.6956 28.6506 24.4319C28.9143 24.1681 29.0625 23.8105 29.0625 23.4375V6.5625C29.0625 6.18954 28.9143 5.83185 28.6506 5.56813C28.3869 5.30441 28.0292 5.15625 27.6562 5.15625ZM28.125 23.4375C28.125 23.5618 28.0756 23.681 27.9877 23.769C27.8998 23.8569 27.7806 23.9062 27.6562 23.9062H13.125V22.5H12.1875V23.9062H2.34375C2.21943 23.9062 2.1002 23.8569 2.01229 23.769C1.92439 23.681 1.875 23.5618 1.875 23.4375V6.5625C1.875 6.43818 1.92439 6.31895 2.01229 6.23104C2.1002 6.14314 2.21943 6.09375 2.34375 6.09375H12.1875V14.0625H13.125V6.09375H27.6562C27.7806 6.09375 27.8998 6.14314 27.9877 6.23104C28.0756 6.31895 28.125 6.43818 28.125 6.5625V23.4375Z" fill="#272727"/>
<path d="M10.7812 15.4688H3.28125C3.15693 15.4688 3.0377 15.5181 2.94979 15.606C2.86189 15.694 2.8125 15.8132 2.8125 15.9375V22.5C2.8125 22.6243 2.86189 22.7435 2.94979 22.8315C3.0377 22.9194 3.15693 22.9688 3.28125 22.9688H10.7812C10.9056 22.9688 11.0248 22.9194 11.1127 22.8315C11.2006 22.7435 11.25 22.6243 11.25 22.5V15.9375C11.25 15.8132 11.2006 15.694 11.1127 15.606C11.0248 15.5181 10.9056 15.4688 10.7812 15.4688ZM10.3125 22.0312H3.75V16.4062H10.3125V22.0312Z" fill="#272727"/>
<path d="M12.1875 15H13.125V15.9375H12.1875V15Z" fill="#272727"/>
<path d="M12.1875 16.875H13.125V17.8125H12.1875V16.875Z" fill="#272727"/>
<path d="M12.1875 18.75H13.125V19.6875H12.1875V18.75Z" fill="#272727"/>
<path d="M12.1875 20.625H13.125V21.5625H12.1875V20.625Z" fill="#272727"/>
<path d="M23.4375 7.5C22.7411 7.50012 22.0699 7.76004 21.555 8.22891C21.3053 8.14628 21.0436 8.10588 20.7806 8.10938C20.3055 8.10085 19.8392 8.23881 19.4452 8.50453C19.1935 8.67472 18.8967 8.76567 18.593 8.76567C18.2892 8.76567 17.9924 8.67472 17.7408 8.50453C17.3471 8.2388 16.8811 8.10083 16.4062 8.10938V9.04688C16.711 9.03859 17.0102 9.13029 17.258 9.30797C17.6557 9.56629 18.1197 9.70377 18.5939 9.70377C19.0681 9.70377 19.5322 9.56629 19.9298 9.30797C20.1779 9.13022 20.4774 9.03852 20.7825 9.04688C20.8373 9.04688 20.8791 9.05344 20.9264 9.05719C20.7785 9.34916 20.6833 9.66494 20.6452 9.99C20.2169 10.0066 19.8015 10.1414 19.4452 10.3795C19.1935 10.5497 18.8967 10.6407 18.593 10.6407C18.2892 10.6407 17.9924 10.5497 17.7408 10.3795C17.3471 10.1138 16.8811 9.97583 16.4062 9.98438V10.9219C16.711 10.9136 17.0102 11.0053 17.258 11.183C17.6557 11.4413 18.1197 11.5788 18.5939 11.5788C19.0681 11.5788 19.5322 11.4413 19.9298 11.183C20.1555 11.0257 20.4218 10.9371 20.6967 10.928C20.8127 11.4451 21.0725 11.919 21.4461 12.295C21.8197 12.6709 22.2919 12.9337 22.8083 13.0529C23.3247 13.1721 23.8643 13.143 24.3649 12.9689C24.8655 12.7948 25.3068 12.4828 25.6377 12.0688C25.9687 11.6549 26.176 11.1558 26.2357 10.6292C26.2953 10.1025 26.205 9.56972 25.975 9.0922C25.7451 8.61467 25.3848 8.21184 24.9359 7.93014C24.4869 7.64844 23.9675 7.49933 23.4375 7.5ZM23.4375 12.1875C23.1214 12.1869 22.8107 12.1062 22.5342 11.953C22.2577 11.7998 22.0245 11.5791 21.8564 11.3114C22.1977 11.4955 22.5811 11.5874 22.9687 11.5781V10.6406C22.6637 10.649 22.3642 10.5573 22.1161 10.3795C21.948 10.2723 21.7693 10.1829 21.5827 10.1128C21.6092 9.86593 21.6849 9.62687 21.8053 9.40969C22.1589 9.61217 22.5614 9.71367 22.9687 9.70313V8.76563C22.8098 8.76937 22.6513 8.74623 22.5 8.69719C22.7838 8.52872 23.1075 8.43907 23.4375 8.4375C23.9348 8.4375 24.4117 8.63505 24.7633 8.98668C25.115 9.33831 25.3125 9.81522 25.3125 10.3125C25.3125 10.8098 25.115 11.2867 24.7633 11.6383C24.4117 11.99 23.9348 12.1875 23.4375 12.1875Z" fill="#272727"/>
<path d="M15 14.5312H23.4375V15.4688H15V14.5312Z" fill="#272727"/>
<path d="M15 16.4062H23.4375V17.3438H15V16.4062Z" fill="#272727"/>
<path d="M15 18.2812H23.4375V19.2188H15V18.2812Z" fill="#272727"/>
<path d="M15 21.0938H15.9375V22.9688H15V21.0938Z" fill="#272727"/>
<path d="M16.875 21.0938H17.8125V22.9688H16.875V21.0938Z" fill="#272727"/>
<path d="M18.75 21.0938H19.6875V22.9688H18.75V21.0938Z" fill="#272727"/>
<path d="M20.625 21.0938H21.5625V22.9688H20.625V21.0938Z" fill="#272727"/>
<path d="M22.5 21.0938H23.4375V22.9688H22.5V21.0938Z" fill="#272727"/>
<path d="M3.75 8.4375H9.375V9.375H3.75V8.4375Z" fill="#272727"/>
<path d="M3.75 10.3125H9.375V11.25H3.75V10.3125Z" fill="#272727"/>
</svg>
