<svg width="30" height="30" viewBox="0 0 30 30" fill="none" xmlns="http://www.w3.org/2000/svg">
<g clip-path="url(#clip0)">
<path d="M28.5693 17.5719H28.1203V13.5281C28.1203 12.8879 27.8017 12.321 27.3151 11.9766V11.426C27.3151 10.6273 26.6653 9.97756 25.8666 9.97756H25.5314L26.814 8.09553C27.2439 7.46471 27.0804 6.60168 26.4496 6.17172L17.7466 0.240864C17.441 0.0325632 17.0727 -0.0443118 16.7092 0.024653C16.3458 0.0935007 16.031 0.299692 15.8228 0.605317L8.311 11.6281H6.22066L6.72498 6.52288C6.73066 6.46534 6.76805 6.41547 6.8202 6.39584C7.46994 6.15086 8.03303 5.69336 8.40568 5.10766C8.43504 5.06155 8.49041 5.03518 8.54772 5.04098L11.8263 5.36489C12.0614 5.38768 12.2705 5.21647 12.2937 4.98151C12.3169 4.74655 12.1453 4.53731 11.9104 4.51411L8.63174 4.1902C8.25117 4.15293 7.88824 4.32831 7.68434 4.6487C7.41035 5.07936 6.99633 5.41569 6.51861 5.59581C6.15902 5.73139 5.91211 6.05436 5.87414 6.43879L5.36156 11.6281H4.81646L5.61404 3.55364C5.64275 3.26301 5.90215 3.0495 6.19313 3.07862L12.8186 3.73311C13.0535 3.75579 13.2628 3.58469 13.286 3.34973C13.3092 3.11477 13.1375 2.90553 12.9026 2.88233L6.27715 2.22784C5.51754 2.15289 4.83826 2.70983 4.7632 3.46956L4.12031 9.97756H3.02549C2.22686 9.97756 1.57705 10.6273 1.57705 11.426V11.8016C0.923672 12.1024 0.46875 12.7629 0.46875 13.5281V28.1C0.46875 29.1477 1.32105 30 2.36877 30H26.2204C27.268 30 28.1203 29.1477 28.1203 28.1V24.0562H28.5693C29.0992 24.0562 29.5303 23.6252 29.5303 23.0953V18.5329C29.5303 18.003 29.0992 17.5719 28.5693 17.5719ZM25.8666 10.8326C26.1939 10.8325 26.4601 11.0988 26.4601 11.4261V11.6439C26.3815 11.6339 26.3016 11.6282 26.2204 11.6282H24.4066L24.9488 10.8326H25.8666ZM16.5292 1.08672C16.6089 0.969829 16.7293 0.890962 16.8683 0.864594C16.9015 0.858325 16.9349 0.855161 16.968 0.855161C17.0733 0.855161 17.1762 0.886684 17.2651 0.94727L25.9681 6.87813C26.2094 7.0426 26.272 7.37272 26.1076 7.61401L23.3721 11.628H22.7156L24.0567 9.66004C24.2742 9.34088 24.2922 8.93471 24.1034 8.59996C23.8525 8.15524 23.7507 7.63159 23.817 7.1254C23.8662 6.74881 23.7005 6.3812 23.3845 6.16592L18.8729 3.09139C18.5569 2.87606 18.1542 2.85631 17.8217 3.03989C17.3749 3.28657 16.8503 3.38342 16.3447 3.31264C15.9697 3.26002 15.5893 3.42936 15.3751 3.74372L10.0021 11.6281H9.34559L16.5292 1.08672ZM16.7175 8.34596C14.8559 8.34596 13.3278 9.7975 13.2033 11.6281H11.0365L16.0814 4.22518C16.0815 4.22518 16.0815 4.22518 16.0815 4.22518C16.1101 4.18305 16.1576 4.15797 16.2064 4.15797C16.2129 4.15797 16.2195 4.15844 16.226 4.15932C16.9137 4.25553 17.6271 4.12393 18.2348 3.78836C18.2827 3.76188 18.3441 3.76569 18.3914 3.79791L22.9031 6.8725C22.9503 6.90473 22.9763 6.96051 22.9692 7.01465C22.8792 7.70307 23.0176 8.41522 23.3588 9.02002C23.3861 9.0686 23.3828 9.13082 23.3503 9.17858L21.6811 11.628H20.2319C20.1073 9.7975 18.5792 8.34596 16.7175 8.34596ZM19.3746 11.6281H14.0605C14.1829 10.2694 15.3275 9.20096 16.7175 9.20096C18.1076 9.2009 19.2522 10.2694 19.3746 11.6281ZM2.43199 11.426C2.43199 11.0987 2.69818 10.8324 3.02549 10.8324H4.03588L3.9573 11.6281H2.43199V11.426ZM1.32369 13.5281C1.32369 12.9518 1.7925 12.483 2.36877 12.483H26.2204C26.7966 12.483 27.2654 12.9518 27.2654 13.5281V14.7142H1.32369V13.5281ZM27.2654 28.1C27.2654 28.6762 26.7966 29.145 26.2204 29.145H2.36877C1.7925 29.145 1.32369 28.6762 1.32369 28.1V26.9139H3.62889C3.86502 26.9139 4.05633 26.7225 4.05633 26.4864C4.05633 26.2503 3.86496 26.059 3.62889 26.059H1.32369V15.5692H27.2654V17.5719H23.201H23.2009C21.9203 17.5719 20.811 18.3184 20.2845 19.3989C20.2828 19.4025 20.2808 19.4061 20.2789 19.4097C20.2745 19.4189 20.2706 19.4284 20.2663 19.4377C20.2036 19.5709 20.1491 19.7088 20.1047 19.851C20.1046 19.8514 20.1045 19.8518 20.1044 19.8522C20.0098 20.1562 19.9587 20.4793 19.9587 20.8141C19.9587 22.6018 21.4131 24.0562 23.2008 24.0562H23.2009H27.2653V26.059H6.36604C6.1299 26.059 5.93859 26.2503 5.93859 26.4864C5.93859 26.7225 6.12996 26.9139 6.36604 26.9139H27.2654V28.1ZM28.6754 23.0952C28.6754 23.1537 28.6278 23.2013 28.5693 23.2013H23.201C22.296 23.2013 21.507 22.6951 21.1023 21.951C21.0839 21.9172 21.0663 21.8829 21.0495 21.8481C21.0159 21.7786 20.9856 21.7072 20.9589 21.634C20.865 21.3782 20.8138 21.102 20.8138 20.8141C20.8138 20.5261 20.8651 20.2499 20.9589 19.9941C20.9857 19.921 21.016 19.8496 21.0495 19.78C21.0663 19.7453 21.0839 19.7109 21.1023 19.6771C21.507 18.933 22.296 18.4268 23.201 18.4268H28.5693C28.6277 18.4268 28.6754 18.4744 28.6754 18.5329V23.0952Z" fill="#272727"/>
<path d="M23.3018 19.0797C22.3454 19.0797 21.5674 19.8578 21.5674 20.8141C21.5674 21.7704 22.3454 22.5484 23.3018 22.5484C24.2581 22.5484 25.0361 21.7704 25.0361 20.8141C25.0361 19.8578 24.2581 19.0797 23.3018 19.0797ZM23.3018 21.6935C22.8168 21.6935 22.4223 21.299 22.4223 20.8141C22.4223 20.3292 22.8168 19.9347 23.3018 19.9347C23.7867 19.9347 24.1812 20.3292 24.1812 20.8141C24.1812 21.299 23.7867 21.6935 23.3018 21.6935Z" fill="#272727"/>
</g>
<defs>
<clipPath id="clip0">
<rect width="30" height="30" fill="white"/>
</clipPath>
</defs>
</svg>
