<svg width="29" height="29" viewBox="0 0 29 29" fill="none" xmlns="http://www.w3.org/2000/svg">
<path d="M27.8012 0H0.796345C0.580499 0.00510308 0.375499 0.09466 0.226263 0.249048C0.0770267 0.403436 -0.00427436 0.610064 0.000173335 0.823656V4.42134C0.00124972 4.5377 0.0276559 4.65245 0.0775934 4.7578C0.127531 4.86315 0.199827 4.9566 0.289557 5.03181L10.5616 13.7358V28.1961C10.559 28.332 10.5918 28.4662 10.6568 28.5859C10.7218 28.7056 10.8169 28.8066 10.9328 28.8794C11.0587 28.9581 11.2044 28.9999 11.3532 29C11.4781 29 11.6011 28.971 11.7126 28.9153L17.602 25.9981C17.7352 25.9305 17.8465 25.8272 17.9232 25.7001C17.9999 25.5729 18.039 25.4269 18.0359 25.2788V13.7358L28.308 5.03141C28.3976 4.95625 28.4699 4.86285 28.5198 4.75758C28.5698 4.65231 28.5962 4.53763 28.5973 4.42134V0.823656C28.6018 0.610064 28.5205 0.403436 28.3713 0.249048C28.222 0.09466 28.017 0.00510308 27.8012 0ZM26.9725 4.05156L16.7004 12.7555C16.6107 12.8307 16.5384 12.9241 16.4884 13.0295C16.4385 13.1348 16.4121 13.2496 16.411 13.366V24.7816L12.1865 26.8962V13.366C12.1854 13.2496 12.159 13.1348 12.1091 13.0295C12.0591 12.9241 11.9868 12.8307 11.8971 12.7555L1.62501 4.05156V1.60776H26.9725V4.05156Z" fill="white"/>
</svg>
